P1
# CREATOR: GIMP PNM Filter Version 1.1
6 6
001110001000001000101010011100001000