P1
# CREATOR: GIMP PNM Filter Version 1.1
6 6
001001010001111111010000001000000000