P1
# CREATOR: GIMP PNM Filter Version 1.1
6 6
000000100100100010111111000010000100