P1
# CREATOR: GIMP PNM Filter Version 1.1
6 6
001000011100101010001000001000111000