P3
# CREATOR: GIMP PNM Filter Version 1.1
3 5
255
255
121
0
255
255
255
255
255
255
255
121
0
255
255
255
255
255
255
255
121
0
255
121
0
255
121
0
255
121
0
255
255
255
255
121
0
255
121
0
255
121
0
255
121
0
