P1
# CREATOR: GIMP PNM Filter Version 1.1
3 5
111101111001001