P1
# CREATOR: GIMP PNM Filter Version 1.1
1 5
01010