P3
# CREATOR: GIMP PNM Filter Version 1.1
40 40
255
73
73
73
96
96
96
120
120
120
141
141
141
159
159
159
171
171
171
180
180
180
186
186
186
185
185
185
181
181
181
180
180
180
172
172
172
161
161
161
151
151
150
142
142
140
130
130
126
118
117
111
110
109
98
103
101
85
98
96
70
92
89
59
94
90
49
95
90
40
97
92
31
102
96
25
109
101
20
117
108
16
125
116
12
135
124
10
144
133
8
153
141
6
162
149
5
171
158
4
179
165
3
188
173
3
195
179
2
203
187
1
207
190
1
215
197
1
220
202
1
87
87
87
110
110
110
137
137
137
160
160
160
180
180
180
196
196
196
205
205
205
210
210
210
213
213
213
215
215
215
211
211
211
204
204
204
198
198
198
190
190
190
177
177
177
167
167
166
156
156
154
146
145
142
131
130
125
123
122
111
115
113
97
110
108
85
104
101
71
102
99
60
102
98
50
104
98
41
107
101
34
113
106
30
120
112
24
125
117
19
133
123
17
140
130
14
150
139
12
158
145
10
164
151
8
174
160
7
180
166
5
187
172
4
195
179
3
201
184
2
99
99
99
125
125
125
154
154
154
179
179
179
201
201
201
214
214
214
223
223
223
231
231
231
235
235
235
236
236
236
236
236
236
233
233
233
226
226
226
221
221
221
214
214
214
202
202
202
191
191
191
181
181
181
169
169
167
155
155
152
144
144
137
136
135
125
126
125
109
121
119
98
116
114
85
114
111
75
113
109
64
113
108
56
116
111
48
119
113
42
122
115
36
129
121
32
135
126
27
139
129
23
146
136
19
152
141
16
160
148
13
165
152
10
171
157
8
179
165
5
109
109
109
138
138
138
169
169
169
195
195
195
212
212
212
227
227
227
235
235
235
243
243
243
247
247
247
248
248
248
249
249
249
246
246
246
243
243
243
239
239
239
234
234
234
224
224
224
219
219
219
209
209
209
198
198
198
187
187
187
176
176
175
168
168
165
156
156
150
146
145
137
142
140
128
135
133
114
129
127
102
125
123
92
126
123
84
123
119
71
124
119
65
127
121
58
130
124
52
132
125
44
137
129
40
140
131
35
145
136
28
149
139
22
152
141
18
157
145
13
122
122
122
152
152
152
181
181
181
205
205
205
224
224
224
235
235
235
245
245
245
249
249
249
253
253
253
254
254
254
254
254
254
254
254
254
252
252
252
250
250
250
246
246
246
242
242
242
235
235
235
229
229
229
220
220
220
212
212
212
205
205
205
196
196
196
187
187
186
178
178
175
169
169
165
163
162
155
155
154
142
149
147
132
147
145
123
140
138
110
137
134
101
136
132
92
136
131
84
134
129
74
135
129
68
138
132
62
140
133
53
137
129
42
138
130
34
138
129
26
136
136
136
164
164
164
191
191
191
215
215
215
232
232
232
242
242
242
248
248
248
253
253
253
254
254
254
255
255
255
255
255
255
255
255
255
255
255
255
253
253
253
252
252
252
250
250
250
247
247
247
242
242
242
237
237
237
231
231
231
226
226
226
218
218
218
210
210
210
203
203
202
197
197
196
190
189
188
182
182
177
175
175
168
170
170
160
165
163
150
159
157
140
155
153
130
155
152
124
149
146
113
148
144
105
146
142
97
144
139
85
138
132
72
132
126
59
131
124
47
145
145
145
176
176
176
202
202
202
226
226
226
239
239
239
248
248
248
252
252
252
254
254
254
255
255
255
255
255
255
255
255
255
255
255
255
255
255
255
255
255
255
255
255
255
254
254
254
252
252
252
250
250
250
248
248
248
245
245
245
241
241
241
237
237
237
231
231
231
225
225
225
222
222
222
213
213
213
208
208
207
202
202
200
198
197
195
189
189
184
185
185
177
179
179
168
179
178
164
172
170
153
168
166
144
164
162
136
159
156
125
148
145
108
139
135
93
128
124
74
155
155
155
186
186
186
212
212
212
233
233
233
245
245
245
252
252
252
254
254
254
255
255
255
255
255
255
255
255
255
255
255
255
255
255
255
255
255
255
255
255
255
255
255
255
255
255
255
255
255
255
255
255
255
253
253
253
253
253
253
250
250
250
247
247
247
245
245
245
241
241
241
236
236
236
232
232
232
227
227
227
223
223
223
220
220
220
214
214
213
210
210
208
206
205
203
202
202
198
196
195
189
192
191
181
189
187
176
182
181
166
168
166
147
155
153
128
139
136
107
167
167
167
193
193
193
219
219
219
237
237
237
250
250
250
254
254
254
255
255
255
255
255
255
255
255
255
255
255
255
255
255
255
255
255
255
255
255
255
255
255
255
255
255
255
255
255
255
255
255
255
255
255
255
255
255
255
255
255
255
255
255
255
253
253
253
253
253
253
251
251
251
247
247
247
245
245
245
244
229
229
240
217
217
235
213
213
233
218
218
229
229
229
226
226
226
221
221
221
219
219
218
213
213
210
211
210
207
203
203
198
194
193
186
177
176
166
156
155
141
173
173
173
201
201
201
224
224
224
242
242
242
252
252
252
255
255
255
255
255
255
255
255
255
255
255
255
255
255
255
255
244
244
255
230
230
255
206
206
255
206
206
255
207
207
255
232
232
255
246
246
255
255
255
255
255
255
255
255
255
255
255
255
255
255
255
255
255
255
255
255
255
254
254
254
253
209
209
252
150
150
251
98
98
248
97
97
247
147
147
245
203
203
242
242
242
239
239
239
237
237
237
234
234
234
230
230
230
227
227
227
217
217
215
201
200
198
176
176
172
178
178
178
206
206
206
228
228
228
245
245
245
253
253
253
255
255
255
255
255
255
255
255
255
255
255
255
255
235
235
255
177
177
255
109
109
255
61
61
255
53
53
255
64
64
255
121
121
255
193
193
255
246
246
255
255
255
255
255
255
255
255
255
255
255
255
255
255
255
255
255
255
255
231
231
255
120
120
255
30
30
254
6
6
254
6
6
253
30
30
253
119
119
251
227
227
250
250
250
249
249
249
248
248
248
245
245
245
243
243
243
233
233
233
217
217
217
195
195
195
181
181
181
209
209
209
230
230
230
246
246
246
253
253
253
255
255
255
255
255
255
255
255
255
255
249
249
255
203
203
255
88
88
255
17
17
255
2
2
255
2
2
255
3
3
255
24
24
255
114
114
255
228
228
255
255
255
255
255
255
255
255
255
255
255
255
255
255
255
255
255
255
255
211
211
255
61
61
255
2
2
255
0
0
255
0
0
255
2
2
255
61
61
255
211
211
255
255
255
255
255
255
254
254
254
253
253
253
253
253
253
244
244
244
229
229
229
207
207
207
184
184
184
209
209
209
230
230
230
245
245
245
253
253
253
255
255
255
255
255
255
255
255
255
255
246
246
255
170
170
255
39
39
255
1
1
255
0
0
255
0
0
255
0
0
255
3
3
255
67
67
255
206
206
255
255
255
255
255
255
255
255
255
255
255
255
255
255
255
255
255
255
255
191
191
255
41
41
255
0
0
255
0
0
255
0
0
255
0
0
255
41
41
255
191
191
255
255
255
255
255
255
255
255
255
255
255
255
255
255
255
250
250
250
236
236
236
213
213
213
185
185
185
209
209
209
230
230
230
245
245
245
253
253
253
255
255
255
255
255
255
255
255
255
255
246
246
255
170
170
255
39
39
255
1
1
255
0
0
255
0
0
255
0
0
255
4
4
255
68
68
255
208
208
255
255
255
255
255
255
255
255
255
255
255
255
255
255
255
255
255
255
255
217
217
255
79
79
255
6
6
255
0
0
255
0
0
255
6
6
255
79
79
255
217
217
255
255
255
255
255
255
255
255
255
255
255
255
255
255
255
250
250
250
237
237
237
215
215
215
183
183
183
210
210
210
230
230
230
246
246
246
253
253
253
255
255
255
255
255
255
255
255
255
255
249
249
255
203
203
255
87
87
255
17
17
255
2
2
255
2
2
255
3
3
255
26
26
255
119
119
255
229
229
255
255
255
255
255
255
255
255
255
255
255
255
255
255
255
255
255
255
255
239
239
255
157
157
255
64
64
255
23
23
255
23
23
255
64
64
255
157
157
255
239
239
255
255
255
255
255
255
255
255
255
255
255
255
255
255
255
249
249
249
235
235
235
215
215
215
181
181
181
209
209
209
230
230
230
246
246
246
253
253
253
255
255
255
255
255
255
255
255
255
255
255
255
255
235
235
255
177
177
255
108
108
255
59
59
255
52
52
255
65
65
255
125
125
255
197
197
255
247
247
255
255
255
255
255
255
255
255
255
255
255
255
255
255
255
255
255
255
255
255
255
255
239
239
255
211
211
255
174
174
255
174
174
255
211
211
255
239
239
255
255
255
255
255
255
255
255
255
255
255
255
255
255
255
255
255
255
250
250
250
234
234
234
210
210
210
183
183
183
209
209
209
229
229
229
245
245
245
253
253
253
255
255
255
255
255
255
255
255
255
255
255
255
255
255
255
255
244
244
255
229
229
255
205
205
255
205
205
255
209
209
255
233
233
255
247
247
255
255
255
255
255
255
255
255
255
255
255
255
255
255
255
255
255
255
255
255
255
255
255
255
255
255
255
255
255
255
255
255
255
255
255
255
255
255
255
255
255
255
255
255
255
255
255
255
255
255
255
255
255
255
255
255
255
255
255
255
248
248
248
232
232
232
209
209
209
180
180
180
207
207
207
228
228
228
244
244
244
253
253
253
255
255
255
255
255
255
255
255
255
255
255
255
255
255
255
255
255
255
255
255
255
255
255
255
255
255
255
255
255
255
255
255
255
255
255
255
255
255
255
255
255
255
255
255
255
255
255
255
255
255
255
255
255
255
255
255
255
255
255
255
255
255
255
255
255
255
255
255
255
255
255
255
255
255
255
255
255
255
255
255
255
255
255
255
255
255
255
255
255
255
255
255
255
254
254
254
246
246
246
230
230
230
206
206
206
177
177
177
205
205
205
227
227
227
245
245
245
253
253
253
255
255
255
255
255
255
255
255
255
255
255
255
255
255
255
255
255
255
255
255
255
255
255
255
255
255
255
255
255
255
255
255
255
255
255
255
255
255
255
255
255
255
255
255
255
255
255
255
255
255
255
255
255
255
255
255
255
255
255
255
255
255
255
255
255
255
255
255
255
255
255
255
255
255
255
255
255
255
255
255
255
255
255
255
255
255
255
255
255
255
255
255
255
253
253
253
244
244
244
228
228
228
200
200
200
174
174
174
203
203
203
226
226
226
244
244
244
253
253
253
255
255
255
255
255
255
255
255
255
255
255
255
255
255
255
255
255
255
255
255
255
255
255
255
255
255
255
255
255
255
255
255
255
255
255
255
255
255
255
255
255
255
255
255
255
255
255
255
255
255
255
255
255
255
255
255
255
255
255
255
255
255
255
255
255
255
255
255
255
255
255
255
255
255
255
255
255
255
255
255
255
255
255
255
255
255
255
255
255
255
255
255
255
253
253
253
243
243
243
225
225
225
196
196
196
173
173
173
201
201
201
223
223
223
241
241
241
252
252
252
255
255
255
255
255
255
255
255
255
255
255
255
255
255
255
255
255
255
255
255
255
255
255
255
255
255
255
255
255
255
255
255
255
255
255
255
255
255
255
255
255
255
255
255
255
255
255
255
255
255
255
255
255
255
255
255
255
255
255
255
255
255
255
255
255
255
255
255
255
255
255
255
255
255
255
255
255
255
255
255
255
255
255
255
255
255
255
255
255
255
254
254
254
251
251
251
241
241
241
221
221
221
193
193
193
170
170
170
198
198
198
222
222
222
239
239
239
251
251
251
255
255
255
255
255
255
255
255
255
255
255
255
255
255
255
255
255
255
255
255
255
255
255
255
255
255
255
255
255
255
255
255
255
255
255
255
255
255
255
255
255
255
255
255
255
255
255
255
255
255
255
255
255
255
255
255
255
255
255
255
255
255
255
255
255
255
255
255
255
255
255
255
255
255
255
252
251
255
248
245
255
243
237
255
246
242
255
251
249
255
253
253
254
250
250
250
237
237
237
217
217
217
190
190
190
166
166
166
193
193
193
219
219
219
239
239
239
250
250
250
255
255
255
255
255
255
255
255
255
255
255
255
255
255
255
255
255
255
255
255
255
255
255
255
255
255
255
255
255
255
255
255
255
255
255
255
255
255
255
255
255
255
255
255
255
255
255
255
255
255
255
255
255
255
255
255
255
255
255
255
255
255
255
255
255
255
255
255
255
255
255
255
252
251
255
234
224
254
209
187
253
189
157
252
201
175
253
225
211
254
247
243
254
248
248
249
236
236
236
215
215
215
183
183
183
159
159
159
192
192
192
216
216
216
236
236
236
249
249
249
254
254
254
255
255
255
255
255
255
255
255
255
255
255
255
255
255
255
255
255
255
255
255
255
255
255
255
255
255
255
255
255
255
255
255
255
255
255
255
255
255
255
255
255
255
255
255
255
255
255
255
255
255
255
255
255
255
255
255
255
255
255
255
255
255
255
255
255
255
255
255
255
246
242
255
201
175
253
145
93
251
111
43
249
129
70
250
179
143
252
231
221
252
246
245
248
233
233
233
213
213
213
178
178
178
156
156
156
187
187
187
215
215
215
232
232
232
246
246
246
253
252
254
253
252
255
253
252
255
254
253
255
255
255
255
255
255
255
255
255
255
255
255
255
255
255
255
255
255
255
255
255
255
255
255
255
255
255
255
255
255
255
255
255
255
255
255
255
255
255
255
255
255
255
255
255
255
255
255
255
255
255
255
255
255
255
255
255
255
255
255
255
233
223
254
163
120
251
102
29
249
84
3
248
92
14
248
138
82
250
212
192
251
241
239
246
231
231
231
208
208
208
177
177
177
151
151
151
181
181
181
209
209
209
230
230
230
240
237
245
236
228
252
223
208
254
219
202
254
230
218
254
245
240
255
254
253
255
255
255
255
255
255
255
255
255
255
255
255
255
255
255
255
255
255
255
255
255
255
255
255
255
255
255
255
255
255
255
255
255
255
255
255
255
255
255
255
255
255
255
255
255
255
255
255
255
254
254
255
248
245
255
210
188
253
134
77
250
91
13
248
83
1
248
87
7
248
125
64
250
205
183
251
241
238
246
228
228
228
207
207
207
176
176
176
144
144
144
175
175
175
205
205
205
224
223
227
216
204
242
179
144
249
140
86
250
131
72
250
152
103
251
192
162
252
232
221
254
251
249
255
254
254
255
255
255
255
255
255
255
255
255
255
255
255
255
255
255
255
255
255
255
255
255
255
255
255
255
255
255
255
255
255
255
255
255
255
255
255
255
255
255
255
254
254
255
245
240
255
218
200
253
163
119
251
108
39
249
86
6
248
83
1
248
88
9
248
134
76
250
210
190
251
241
239
246
229
229
229
205
205
205
168
168
168
135
135
135
168
168
168
198
198
198
215
211
221
188
164
238
125
65
245
90
12
248
87
7
248
94
18
248
123
61
250
175
137
252
219
202
254
243
238
255
253
252
255
255
255
255
255
255
255
255
255
255
255
255
255
255
255
255
255
255
255
255
255
255
255
255
255
255
255
255
255
255
255
255
255
255
254
254
255
246
241
255
212
192
253
157
110
251
110
41
249
89
11
248
83
2
248
87
7
248
108
38
249
166
124
251
229
217
252
244
243
246
227
227
227
201
201
201
165
165
165
131
131
131
163
163
163
192
192
192
207
202
217
170
138
232
103
34
242
83
1
248
82
0
248
83
1
248
89
10
248
109
40
249
146
94
251
189
157
252
230
218
254
250
248
255
255
255
255
255
255
255
255
255
255
255
255
255
255
255
255
255
255
255
255
255
255
255
255
255
255
255
255
252
251
255
238
230
254
203
178
253
148
97
251
106
35
249
86
6
248
84
3
248
90
12
248
110
42
249
157
111
251
212
192
253
244
240
253
243
243
244
224
224
224
196
196
196
162
162
162
123
123
123
153
153
153
182
182
182
204
202
210
182
159
229
119
60
240
87
8
247
83
1
248
83
1
248
83
2
248
85
4
248
92
15
248
113
45
249
155
107
251
201
175
253
224
209
254
231
220
254
235
226
254
237
229
254
239
231
254
239
231
254
239
231
254
239
231
254
237
228
254
220
203
254
178
142
252
127
67
250
98
24
249
85
5
248
83
1
248
88
9
248
116
50
249
165
123
251
216
197
253
244
239
255
252
251
253
242
242
242
218
218
218
192
192
192
158
158
158
116
116
116
147
147
147
176
176
176
201
200
203
203
191
225
164
129
238
120
57
247
97
22
248
88
9
248
83
2
248
82
0
248
83
1
248
84
3
248
95
19
249
115
49
249
134
77
250
146
94
251
155
107
251
161
116
251
164
121
251
165
122
251
165
122
251
165
122
251
162
118
251
143
90
250
110
41
249
89
10
248
83
2
248
82
0
248
86
6
248
110
42
249
165
123
251
222
207
254
248
245
255
254
254
255
251
251
251
239
239
239
215
215
215
185
185
185
148
148
148
109
109
109
142
142
142
172
172
172
198
198
198
217
215
220
217
207
237
195
170
247
161
117
249
125
64
250
95
19
249
83
2
248
82
0
248
82
0
248
83
1
248
85
4
248
88
9
248
91
13
248
94
18
248
97
22
249
98
23
249
98
24
249
98
24
249
98
24
249
98
23
249
93
16
248
86
6
248
83
1
248
82
0
248
85
4
248
105
34
249
160
115
251
221
205
254
249
246
255
255
255
255
254
254
254
247
247
247
231
231
231
206
206
206
176
176
176
141
141
141
105
105
105
136
136
136
165
165
165
192
192
192
216
216
216
232
231
233
241
238
247
229
218
252
196
169
252
140
85
250
96
20
249
83
2
248
82
0
248
82
0
248
82
0
248
83
1
248
83
1
248
83
1
248
83
1
248
83
1
248
83
1
248
83
1
248
83
1
248
83
1
248
83
1
248
83
1
248
82
0
248
85
4
248
102
29
249
153
105
251
218
201
254
248
245
255
255
255
255
254
254
254
249
249
249
241
241
241
221
221
221
195
195
195
164
164
164
131
131
131
99
99
99
129
129
129
158
158
158
188
188
188
211
211
211
230
230
230
244
244
244
250
249
251
244
239
254
207
184
253
146
95
251
102
30
249
87
7
248
85
4
248
85
4
248
85
4
248
84
3
248
83
2
248
83
2
248
83
2
248
83
1
248
83
1
248
83
1
248
83
1
248
83
2
248
83
2
248
88
9
248
108
39
249
155
107
251
214
195
253
248
244
255
255
255
255
254
254
254
250
250
250
242
242
242
228
228
228
207
207
207
180
180
180
150
150
150
118
118
118
95
95
95
125
125
125
153
153
153
184
184
184
207
207
207
227
227
227
241
241
241
248
248
248
253
253
253
247
243
255
218
201
254
172
132
252
135
78
250
120
56
250
117
51
249
113
46
249
108
39
249
102
30
249
99
25
249
98
24
249
98
24
249
98
24
249
98
24
249
99
25
249
101
28
249
108
39
249
133
75
250
176
138
252
222
206
254
248
245
255
255
255
255
254
254
254
250
250
250
243
243
243
230
230
230
214
214
214
191
191
191
165
165
165
136
136
136
105
105
105
92
92
92
122
122
122
150
150
150
180
180
180
204
204
204
223
223
223
238
238
238
247
247
247
252
252
252
254
254
254
251
249
255
240
233
254
223
208
254
211
190
253
206
183
253
198
171
253
187
155
252
175
137
252
167
126
251
165
123
251
165
122
251
165
122
251
165
122
251
165
123
251
170
130
252
184
150
252
209
187
253
236
227
254
251
249
255
255
255
255
253
253
253
249
249
249
244
244
244
232
232
232
218
218
218
199
199
199
175
175
175
148
148
148
121
121
121
90
90
90
89
89
89
120
120
120
150
150
150
176
176
176
199
199
199
220
220
220
235
235
235
245
245
245
251
251
251
254
254
254
255
255
255
254
254
255
254
253
255
252
250
255
252
250
255
248
245
255
245
240
255
240
233
254
237
229
254
236
227
254
236
227
254
236
227
254
236
227
254
236
227
254
238
230
254
242
236
254
249
246
255
253
252
255
255
255
255
253
253
253
250
250
250
244
244
244
234
234
234
220
220
220
203
203
203
182
182
182
156
156
156
129
129
129
103
103
103
77
77
77
88
88
88
118
118
118
148
148
148
173
173
173
199
199
199
218
218
218
233
233
233
244
244
244
250
250
250
253
253
253
255
255
255
255
255
255
255
255
255
255
255
255
255
255
255
255
255
255
255
255
255
255
255
255
255
255
255
255
255
255
255
255
255
255
255
255
255
255
255
255
255
255
255
255
255
255
255
255
255
255
255
255
255
255
253
253
253
250
250
250
246
246
246
236
236
236
223
223
223
207
207
207
187
187
187
165
165
165
138
138
138
112
112
112
86
86
86
65
65
65
90
90
90
118
118
118
148
148
148
174
174
174
199
199
199
219
219
219
234
234
234
242
242
242
249
249
249
253
253
253
255
255
255
255
255
255
255
255
255
255
255
255
255
255
255
255
255
255
255
255
255
255
255
255
255
255
255
255
255
255
255
255
255
255
255
255
255
255
255
255
255
255
255
255
255
255
255
255
255
255
255
253
253
253
251
251
251
246
246
246
238
238
238
227
227
227
213
213
213
193
193
193
171
171
171
149
149
149
121
121
121
96
96
96
73
73
73
52
52
52
91
91
91
121
121
121
149
149
149
175
175
175
199
199
199
217
217
217
232
232
232
242
242
242
249
249
249
253
253
253
255
255
255
255
255
255
255
255
255
255
255
255
255
255
255
255
255
255
255
255
255
255
255
255
255
255
255
255
255
255
255
255
255
255
255
255
255
255
255
255
255
255
255
255
255
255
255
255
254
254
254
252
252
252
247
247
247
241
241
241
231
231
231
217
217
217
199
199
199
179
179
179
155
155
155
131
131
131
106
106
106
81
81
81
59
59
59
41
41
41
