P3
# CREATOR: GIMP PNM Filter Version 1.1
80 24
255
159
151
183
170
164
196
167
159
191
174
162
190
165
162
194
164
162
197
163
167
202
158
169
208
160
172
212
160
179
220
161
177
216
159
174
213
158
180
225
156
181
227
155
185
231
156
186
233
156
187
236
158
191
238
155
191
240
156
197
248
157
195
245
154
196
247
152
198
250
151
198
250
150
197
250
149
197
249
148
196
248
148
197
250
147
197
249
146
194
249
146
194
248
145
192
247
143
191
246
142
190
245
140
192
247
139
192
249
138
193
248
140
193
250
136
192
249
138
192
247
138
190
247
134
190
247
137
189
247
135
188
247
136
173
224
132
167
222
137
175
229
126
173
232
119
175
237
116
174
237
113
173
237
111
173
238
105
170
238
109
169
236
104
166
233
95
159
229
79
154
226
71
150
223
77
153
227
100
161
232
105
158
229
111
158
227
131
154
217
126
144
207
135
140
199
174
157
195
150
147
199
87
130
208
117
134
197
141
140
191
57
107
196
42
93
191
71
103
189
83
128
209
86
138
220
73
136
221
181
153
198
122
123
196
44
99
200
24
93
201
139
127
171
143
131
174
126
125
177
146
137
182
149
138
177
141
136
180
133
134
180
141
139
178
173
160
177
127
133
183
124
133
185
122
132
183
119
130
183
117
132
184
115
132
185
123
135
185
121
135
182
119
137
188
111
136
189
119
143
194
127
141
186
118
140
188
122
144
192
121
143
191
120
143
193
120
142
191
116
139
192
116
139
190
118
141
190
116
138
191
113
137
190
129
141
187
125
138
187
124
139
187
124
141
190
135
145
189
134
142
188
146
149
188
128
145
191
116
139
191
114
140
192
124
141
191
131
145
191
136
145
189
145
147
184
154
148
186
160
148
182
139
138
182
126
136
184
117
131
185
109
130
187
117
128
186
187
181
162
190
164
169
92
117
181
98
122
187
52
103
190
57
110
192
83
122
193
115
134
195
105
131
192
111
132
193
138
140
192
187
172
172
241
209
153
221
176
166
192
155
169
141
132
180
141
131
186
21
95
194
13
80
193
172
156
187
177
153
190
43
100
200
8
84
203
7
78
205
26
90
206
7
78
205
0
72
206
3
70
209
136
131
181
133
132
184
130
131
186
129
130
186
127
129
186
155
145
186
139
137
186
141
140
191
131
132
189
112
125
189
113
127
189
109
124
187
132
135
186
129
133
181
127
133
182
125
131
182
123
133
183
120
132
185
113
131
186
108
128
187
103
127
185
100
126
186
100
126
185
99
126
189
101
127
187
100
126
186
97
125
189
97
126
187
94
123
189
92
124
187
90
121
187
90
123
187
87
120
187
78
117
186
77
118
186
76
119
188
76
118
189
74
119
187
69
116
189
68
115
188
69
114
186
87
125
186
76
119
190
59
114
189
57
113
188
55
110
187
59
111
187
53
110
189
66
116
188
88
127
185
148
156
167
214
189
144
255
248
115
230
189
145
151
129
169
169
158
157
203
177
152
122
129
181
50
102
188
43
102
190
125
133
180
142
138
180
231
189
153
238
200
141
233
195
139
233
189
142
235
188
146
228
177
152
158
126
174
55
97
183
94
108
186
169
142
180
179
148
178
153
131
190
106
120
194
41
96
202
4
81
202
69
100
200
142
130
192
29
93
199
169
156
198
162
151
198
158
149
195
153
146
194
160
154
200
156
150
199
153
153
204
151
152
204
150
151
204
144
145
202
140
142
199
134
134
187
132
131
181
158
153
190
158
153
189
154
150
189
153
149
187
151
148
188
150
147
189
149
146
188
145
145
187
144
145
189
142
144
189
141
143
189
138
142
189
135
140
188
133
138
188
130
137
186
129
135
186
128
135
185
211
190
151
210
181
175
213
189
167
220
190
171
188
165
190
145
143
194
153
152
192
143
141
189
213
186
161
209
180
164
173
144
157
203
168
172
193
163
184
125
136
190
132
137
191
205
177
176
211
176
177
166
148
188
207
174
179
211
170
170
186
151
173
200
161
169
209
164
164
206
160
160
190
146
168
208
165
150
201
159
159
151
123
167
137
118
176
157
126
172
209
163
165
182
140
171
180
137
166
190
144
158
168
123
158
152
116
160
197
145
157
133
111
164
67
94
172
22
86
180
13
86
182
17
84
180
17
85
181
26
88
184
26
90
183
8
83
186
6
82
190
29
93
189
34
91
184
6
80
188
192
175
202
190
174
203
189
173
205
182
166
203
178
164
204
179
168
207
177
166
206
175
165
204
172
163
203
169
163
205
169
162
205
178
169
203
202
189
200
212
194
196
214
194
189
214
192
186
211
188
183
210
187
184
210
186
184
210
186
186
209
185
185
209
188
187
203
179
188
188
170
189
200
181
187
195
177
188
189
172
187
186
167
185
182
166
187
181
164
186
221
186
173
227
188
168
226
184
158
195
157
170
141
128
174
133
128
177
141
133
183
231
190
162
242
200
125
184
137
117
123
93
121
190
146
162
215
171
159
152
124
163
152
123
167
131
115
170
158
128
168
163
130
169
168
134
171
133
117
169
92
105
174
103
108
176
96
103
174
119
112
175
118
110
173
96
101
175
80
99
175
61
96
176
65
96
176
67
95
175
89
97
175
152
119
172
150
115
165
114
100
164
114
105
167
91
97
166
67
89
165
29
80
169
16
78
174
11
79
177
11
78
179
10
77
179
15
72
178
17
79
179
9
75
179
3
68
183
2
64
182
2
67
183
1
64
183
2
60
186
203
182
196
201
179
195
200
176
196
200
178
200
198
175
200
192
173
196
191
172
196
188
170
196
186
170
198
185
171
200
180
168
196
182
170
200
181
170
198
186
172
194
225
208
182
245
227
164
239
221
171
235
217
173
242
224
170
239
223
171
233
216
180
207
191
194
175
160
189
165
155
188
221
205
196
227
211
190
233
216
183
232
216
183
229
213
185
194
182
198
178
162
189
184
161
183
188
158
179
175
147
173
153
137
181
150
144
190
161
146
188
198
164
175
195
154
154
56
44
59
33
33
53
171
134
162
167
132
164
129
129
182
143
141
189
111
125
184
117
132
192
118
129
194
114
122
185
106
119
185
102
113
183
86
111
183
79
108
182
74
106
182
80
108
183
71
105
184
40
101
185
22
96
190
25
98
190
25
95
186
22
92
184
42
96
182
62
100
180
52
97
179
20
90
182
12
89
185
9
84
187
15
88
191
17
90
193
9
87
195
7
80
189
6
77
191
5
77
190
5
76
190
4
73
189
3
70
193
3
68
192
4
67
193
7
68
192
9
68
194
224
201
204
222
199
205
222
197
205
220
197
207
219
195
206
219
199
212
215
192
205
213
192
204
213
193
208
210
194
208
208
191
207
214
199
206
223
208
202
215
198
200
227
211
197
237
222
188
235
219
185
217
199
192
216
201
191
224
210
187
199
181
197
195
180
200
193
181
204
192
184
206
196
189
208
198
189
204
220
210
192
218
208
199
193
184
201
181
174
201
180
170
200
183
170
199
179
167
198
175
163
197
173
161
199
175
163
200
179
165
200
177
162
197
170
152
187
76
71
98
60
61
85
152
146
194
152
153
205
160
164
218
158
165
219
169
169
218
176
168
210
163
159
209
157
155
207
153
152
207
147
146
203
151
147
202
174
156
204
141
140
199
113
130
199
101
126
202
96
125
203
91
125
206
92
126
206
92
126
206
88
123
205
63
117
205
73
120
206
102
126
203
69
116
204
55
116
205
48
114
207
56
116
208
50
115
211
44
115
211
38
112
211
37
111
211
32
109
211
47
109
208
76
114
205
50
109
206
104
120
200
86
111
200
118
121
198
94
113
198
242
225
207
241
223
210
242
224
215
242
225
214
241
224
217
240
222
216
239
223
214
236
220
215
236
221
219
235
221
218
235
220
217
234
218
215
233
218
215
234
219
211
232
218
207
231
213
207
227
209
206
231
214
203
233
217
202
234
219
203
226
212
214
222
211
217
218
207
221
214
205
219
213
204
219
214
206
216
222
212
211
210
200
214
206
198
217
205
193
214
207
197
218
208
196
219
205
196
220
203
195
218
201
192
216
196
187
215
194
185
213
192
182
211
194
181
208
87
83
110
70
68
97
189
177
210
182
175
213
186
178
215
185
178
217
187
178
215
181
172
210
181
170
212
175
169
213
173
168
216
172
165
213
166
161
210
159
159
209
161
160
209
163
160
212
155
157
213
177
166
213
159
157
213
166
159
212
146
151
214
135
146
215
127
145
218
126
142
214
116
138
214
104
136
216
114
137
214
104
134
216
107
134
215
121
137
208
99
131
210
91
129
213
87
128
212
79
124
212
81
122
208
73
120
206
76
119
206
71
117
202
44
112
206
24
108
207
18
107
208
254
251
177
253
250
179
253
249
188
253
249
190
252
250
185
253
250
184
253
250
181
254
250
184
252
248
185
251
248
183
252
249
186
252
248
184
253
249
185
255
251
172
254
250
179
252
246
183
253
248
185
254
248
174
255
251
181
252
244
183
252
244
179
250
244
187
249
244
194
248
243
190
248
242
193
249
243
192
250
244
193
249
242
191
246
239
201
248
240
185
244
236
191
243
235
191
245
236
188
246
237
189
246
236
185
244
235
180
241
231
181
235
223
189
238
223
180
111
98
107
88
78
91
231
212
184
226
212
195
228
215
191
230
213
195
232
216
191
230
213
194
229
212
198
234
217
194
235
216
195
230
212
192
230
212
192
231
212
197
229
211
195
228
208
196
226
208
200
219
201
197
222
203
200
221
202
198
217
200
201
215
198
202
212
193
203
213
194
201
203
188
206
195
185
209
204
188
204
205
187
204
199
185
203
198
184
203
195
182
204
192
179
203
191
179
204
184
175
205
177
170
205
176
171
206
178
171
203
178
169
199
178
168
198
177
167
196
172
164
194
254
249
199
253
248
203
253
246
202
252
245
200
252
242
200
251
241
199
251
239
196
249
236
194
248
233
194
248
231
193
247
229
194
247
229
196
246
228
193
244
227
194
245
224
195
243
223
192
242
222
193
240
219
193
239
219
190
239
218
194
237
217
191
237
216
195
237
216
199
237
216
199
236
216
200
234
211
189
224
186
129
225
196
178
234
206
163
221
188
167
220
192
174
235
221
212
234
222
211
237
226
210
240
230
211
239
228
208
239
228
205
239
227
201
241
228
201
109
90
104
91
73
89
228
191
155
240
223
197
240
223
200
239
225
197
240
225
198
238
216
181
221
187
157
174
140
133
189
158
146
236
223
199
213
189
173
182
152
148
214
190
173
231
213
198
180
159
166
195
172
168
230
214
205
226
209
207
223
208
207
221
206
208
216
202
208
212
199
211
209
197
213
209
196
212
207
192
211
201
187
214
202
185
213
200
184
211
196
183
210
199
185
210
201
185
212
204
188
212
203
188
210
199
184
209
202
186
209
205
185
207
204
184
203
200
179
200
196
177
204
251
229
171
251
228
174
250
226
173
250
224
172
249
225
174
249
225
171
249
226
173
249
224
172
247
222
173
247
223
176
246
223
180
247
223
182
245
222
181
246
221
181
245
220
180
245
218
183
242
204
150
243
214
177
241
216
182
241
210
178
238
205
172
240
214
189
241
219
171
239
209
179
239
213
191
226
174
109
218
163
109
211
155
125
240
199
119
212
152
114
212
161
132
231
211
203
231
209
202
225
200
194
195
144
135
205
162
151
199
156
148
220
182
167
226
192
182
88
57
80
69
48
72
194
136
117
210
162
121
204
158
153
215
194
204
213
192
208
203
155
121
194
140
113
175
126
121
172
126
123
195
167
180
171
127
135
139
98
115
134
98
114
189
158
181
175
144
159
166
122
130
170
139
156
187
170
197
185
167
197
184
168
198
179
163
195
180
164
199
179
163
197
178
161
199
172
157
197
176
159
200
169
157
198
171
157
197
163
150
194
168
154
201
156
142
189
150
139
189
159
150
198
154
144
197
151
145
198
143
141
194
137
135
191
136
135
191
131
130
191
252
232
119
253
232
125
252
229
126
251
225
128
251
221
124
252
234
144
254
237
148
253
238
146
252
232
145
252
232
146
251
228
142
251
225
137
251
227
137
250
221
133
250
224
135
248
217
137
247
209
119
248
218
138
251
229
143
245
212
131
246
219
127
246
220
145
248
218
130
246
217
146
246
217
142
237
193
101
232
187
113
232
189
115
244
210
121
236
193
101
223
161
95
224
164
102
227
172
112
232
187
124
220
160
107
220
160
110
208
144
102
212
151
110
234
192
149
110
68
73
95
57
70
229
181
130
222
169
119
228
184
142
241
217
180
242
220
180
220
174
126
215
160
117
206
154
124
204
155
128
212
167
127
198
146
126
173
123
117
179
126
118
198
146
135
191
145
135
182
134
133
199
156
146
228
194
179
223
190
181
223
191
182
217
185
183
218
176
142
192
149
153
219
183
184
216
180
179
214
175
181
208
174
179
213
178
185
210
177
188
210
177
190
165
125
145
140
104
133
170
137
158
212
182
192
197
165
182
201
168
189
196
162
187
198
164
188
202
169
190
249
206
64
250
204
69
249
205
78
249
208
85
247
200
82
248
207
72
245
200
65
245
197
69
248
203
69
247
200
78
246
202
88
248
205
91
245
199
98
244
203
91
245
203
96
244
202
98
245
203
100
248
207
103
247
210
102
248
215
111
239
192
88
242
198
103
235
175
89
240
193
99
238
190
99
241
204
106
248
225
69
245
212
116
245
204
98
247
215
91
227
168
97
241
199
126
242
203
117
243
208
127
237
194
127
236
194
126
224
171
110
237
196
140
238
197
129
114
66
67
116
70
73
230
186
124
235
190
121
229
182
127
237
199
138
236
207
146
230
183
119
227
170
111
227
175
124
232
188
133
229
186
118
219
165
127
232
185
106
210
157
129
211
164
137
221
176
148
209
162
145
211
163
145
209
161
137
214
171
150
224
186
159
204
151
134
222
170
120
182
129
126
223
181
161
234
205
177
224
183
163
216
178
169
218
183
177
223
190
180
224
193
186
197
155
157
174
131
147
186
146
153
215
179
172
191
152
162
176
135
153
177
132
152
175
133
155
170
130
154
249
212
66
251
217
73
249
215
81
253
219
78
251
221
74
253
223
74
249
218
80
251
222
85
250
218
92
249
214
93
249
218
93
250
218
89
251
218
88
249
215
79
250
218
92
247
210
96
245
204
87
242
194
86
243
196
94
240
193
97
241
196
97
240
192
100
238
188
90
241
196
92
247
214
94
242
205
95
244
206
96
241
200
103
242
201
104
244
209
102
238
192
104
237
192
108
236
193
112
241
206
120
242
207
131
244
210
115
235
195
107
243
209
124
209
167
112
140
83
73
132
83
78
208
165
112
236
190
128
236
192
124
229
184
118
234
189
114
237
196
127
236
196
136
233
191
127
231
187
128
231
192
136
230
187
138
236
200
131
228
186
140
223
178
137
232
191
142
228
190
154
226
180
149
221
173
139
223
176
137
220
170
130
225
178
120
232
188
125
216
165
133
230
190
139
222
178
150
213
169
138
207
163
144
209
163
148
210
164
152
198
149
144
210
165
157
206
160
155
199
153
149
203
155
153
202
156
153
190
149
152
185
143
147
204
158
159
205
161
157
237
176
42
236
176
45
241
181
46
242
186
46
240
181
43
240
181
42
239
178
46
238
179
47
238
180
57
238
182
52
240
186
51
240
183
48
239
187
59
240
187
50
239
185
55
239
188
57
239
190
58
239
188
64
237
184
57
239
186
56
237
180
69
238
183
60
235
176
52
235
180
61
234
184
72
237
187
70
232
174
68
230
169
68
232
175
66
229
170
69
229
169
66
229
170
77
228
172
75
228
170
79
225
164
78
225
165
81
228
173
78
232
179
89
193
150
70
139
88
71
134
90
73
198
163
127
235
196
135
227
168
80
233
180
74
232
181
82
229
174
91
231
182
84
230
178
89
226
175
96
228
179
105
219
163
97
226
180
79
235
190
87
233
187
96
234
185
92
238
194
98
227
182
125
234
190
94
223
172
87
233
184
95
232
189
92
226
176
107
230
185
90
226
177
91
218
163
100
231
185
105
216
166
127
217
168
122
202
147
124
207
153
127
212
158
128
220
170
116
224
174
119
224
175
109
222
176
124
211
162
144
215
164
130
209
154
126
195
135
122
233
175
78
226
161
73
222
153
63
227
159
59
223
155
63
228
163
72
221
153
68
220
151
63
215
143
61
223
154
62
226
163
56
225
160
66
228
159
59
234
174
55
230
166
40
222
156
41
226
166
69
221
154
67
216
149
81
219
153
67
220
154
76
219
156
81
222
162
92
217
153
85
219
158
82
218
154
78
222
162
85
218
151
71
222
156
64
219
159
85
219
160
88
222
164
85
213
148
78
219
159
88
225
166
86
226
169
87
218
157
85
229
171
94
119
55
54
63
30
57
62
29
58
95
50
63
221
158
92
213
147
84
218
156
86
215
153
88
209
149
89
215
161
116
212
157
114
211
150
91
203
144
93
195
131
90
193
131
84
205
141
93
202
140
89
198
133
94
197
133
98
197
134
97
196
128
93
200
137
91
198
136
96
214
152
83
208
147
106
194
133
90
205
144
107
202
142
94
185
124
97
175
116
106
185
127
120
195
133
108
176
114
100
182
121
99
191
128
118
196
136
105
198
136
109
188
129
106
184
121
117
176
115
92
175
113
106
184
119
100
200
124
68
193
116
72
204
133
79
201
127
68
199
137
73
196
121
75
192
121
85
185
110
73
186
113
79
200
132
86
201
132
87
195
120
79
194
122
69
185
111
75
190
117
98
189
113
81
177
107
93
207
147
102
200
132
95
180
114
101
186
116
102
181
107
83
183
113
94
182
109
80
182
112
84
188
123
65
174
106
85
196
133
94
191
120
90
195
120
69
198
124
65
200
127
61
206
136
57
203
134
73
199
126
78
203
134
75
201
133
85
199
126
88
85
38
58
97
57
70
103
58
72
74
38
65
190
125
104
194
126
97
182
112
90
185
114
87
196
129
111
186
109
82
202
139
78
182
123
92
168
109
101
161
110
99
173
112
96
159
98
91
181
117
92
180
121
102
193
136
105
210
166
130
203
157
134
220
177
173
170
107
103
160
97
96
167
105
93
176
113
107
168
108
98
154
96
106
177
119
109
178
118
108
169
104
96
153
95
101
170
110
95
169
112
118
165
109
119
149
97
118
157
101
113
148
94
112
149
97
115
157
99
108
147
94
109
162
103
107
163
86
71
183
113
71
188
115
87
180
116
101
178
108
88
189
123
91
186
117
81
183
110
77
160
88
77
158
90
84
157
90
91
161
90
86
197
137
111
188
128
109
172
102
84
166
91
72
170
101
93
157
89
86
159
89
78
151
83
85
149
80
83
148
84
89
158
94
99
155
91
78
162
98
90
159
94
88
158
90
88
165
96
86
181
114
93
175
104
85
163
88
70
161
88
74
158
86
71
164
93
71
162
85
70
166
92
77
183
113
83
150
90
82
83
29
53
176
112
91
181
104
63
67
23
47
130
73
76
150
74
70
187
123
100
183
116
97
179
113
95
170
107
78
151
89
93
148
87
94
147
86
88
140
80
93
140
87
92
156
92
93
164
98
96
160
96
95
171
106
82
138
82
93
150
96
106
158
107
117
160
100
106
145
89
102
159
104
113
161
106
123
166
109
110
155
100
113
165
107
115
168
112
109
160
107
117
149
89
105
158
106
98
166
112
124
175
122
129
158
99
109
138
83
107
136
90
118
135
91
123
142
95
116
158
100
115
188
134
139
152
84
81
166
95
95
161
95
90
157
84
81
145
84
83
151
77
67
155
87
80
141
69
67
131
70
80
147
77
73
140
77
75
145
85
85
165
95
85
164
89
75
141
76
85
143
82
89
158
85
79
156
86
82
133
73
80
149
84
88
178
122
117
134
83
78
91
43
52
108
49
52
141
81
78
138
75
76
142
74
74
105
53
53
108
50
49
120
58
50
119
57
50
124
61
60
125
66
55
125
67
60
107
50
56
98
51
65
147
89
87
108
48
63
90
40
58
145
96
89
118
73
77
79
35
57
89
45
67
139
79
78
192
130
104
181
118
104
165
108
98
154
92
84
108
54
66
114
55
69
109
50
58
109
46
58
114
59
52
108
61
66
99
53
60
111
61
66
154
92
78
183
119
101
117
67
79
150
92
93
100
56
80
109
59
81
118
67
96
131
73
96
148
85
89
131
76
87
148
93
105
150
96
108
136
84
102
135
83
106
131
79
98
165
107
88
145
88
101
167
115
118
156
111
116
144
104
124
127
92
127
120
83
117
129
94
124
124
95
134
147
85
88
144
79
79
153
79
80
169
107
104
153
94
89
150
95
101
156
93
99
165
102
105
133
70
80
138
84
90
156
95
84
132
75
79
144
79
88
121
66
81
144
85
97
150
92
99
153
95
105
158
101
110
121
70
85
89
44
67
95
49
67
91
40
57
80
38
56
75
38
55
108
50
55
113
48
54
132
59
54
140
73
41
135
62
47
137
65
48
128
60
52
133
63
51
121
52
51
103
47
53
128
68
36
117
61
61
76
35
56
69
32
62
63
32
64
64
31
65
71
33
69
61
32
64
63
30
61
90
49
73
185
120
115
149
94
97
140
85
72
116
66
53
117
50
56
129
69
62
121
64
51
119
66
62
115
62
65
109
57
63
124
59
58
129
64
65
133
68
58
127
71
59
123
66
64
119
61
76
106
49
56
96
46
63
178
117
120
133
76
71
129
86
109
115
80
115
108
73
109
149
109
141
110
78
111
111
74
98
120
80
107
130
85
102
142
98
121
139
100
126
142
103
132
142
104
134
127
90
118
90
67
102
81
65
106
96
76
111
103
45
50
96
42
52
88
41
58
117
58
74
145
87
103
99
59
79
131
80
94
136
75
89
119
46
40
138
72
73
130
65
58
123
64
57
129
58
52
131
62
63
133
63
55
130
57
50
119
49
57
143
69
62
149
86
92
122
68
75
119
68
80
123
63
50
102
46
37
117
52
31
130
55
34
133
59
41
146
78
46
136
67
37
142
70
43
162
83
32
172
96
28
166
91
38
157
81
40
133
70
56
132
69
64
142
80
65
85
36
62
87
45
71
110
61
76
124
70
75
136
90
86
136
97
103
93
46
74
74
35
65
154
99
88
145
89
71
137
80
54
133
70
54
112
55
56
130
63
47
120
62
49
124
64
57
123
65
49
147
75
37
155
80
34
152
78
44
180
105
32
171
96
30
167
92
34
141
79
62
138
73
76
108
59
61
144
81
90
111
53
67
81
34
61
99
53
73
110
63
83
128
78
99
92
50
77
77
38
60
81
50
76
61
32
53
54
28
52
81
47
70
95
55
84
102
61
76
70
34
60
69
31
54
87
57
95
67
43
77
145
109
148
145
106
141
148
109
146
128
93
126
146
107
131
150
104
125
44
27
68
59
39
76
111
80
104
121
86
97
138
95
109
143
106
124
123
78
78
83
35
43
83
37
38
141
66
38
145
94
105
137
94
126
108
72
102
136
92
116
85
50
65
69
33
32
77
36
38
84
39
37
75
35
46
90
34
36
99
45
41
111
49
34
125
66
23
137
69
24
137
65
24
121
56
32
130
44
37
103
40
35
104
44
55
92
34
58
80
39
69
104
52
71
109
61
73
174
120
99
230
190
130
231
204
161
146
90
102
93
41
62
92
38
61
86
41
44
60
30
43
65
26
43
90
45
53
103
55
50
106
61
61
142
85
81
122
67
49
149
71
33
136
68
42
163
97
62
167
89
22
128
58
30
113
51
28
148
87
78
150
102
122
128
92
130
140
95
130
102
60
75
61
35
47
101
61
73
107
63
96
129
89
120
129
94
128
132
101
137
110
96
125
178
150
174
177
145
167
143
102
112
145
99
110
142
96
108
134
90
100
128
91
110
107
73
96
85
56
78
98
71
109
80
55
96
91
67
116
110
83
133
95
61
103
114
76
111
69
48
84
52
33
77
136
99
128
141
108
137
96
67
103
81
57
95
104
58
72
97
53
75
111
64
86
106
69
99
90
61
97
93
61
92
98
62
91
116
66
84
51
21
37
70
42
67
125
94
108
131
96
121
90
58
66
93
32
29
135
46
23
118
56
21
99
51
33
97
45
34
97
43
36
101
44
36
107
50
38
67
34
45
70
41
54
66
35
50
63
34
47
118
89
109
122
84
105
145
113
121
143
106
126
127
98
111
106
62
65
113
69
75
76
36
49
84
40
45
54
30
50
49
34
51
59
36
50
49
33
52
115
57
36
101
51
32
117
60
36
120
60
29
136
73
43
169
108
93
153
99
95
57
29
48
56
24
46
122
68
67
132
75
88
137
84
97
111
63
90
89
52
82
67
43
77
40
23
43
80
43
68
86
53
99
91
69
112
100
68
107
102
68
104
112
78
118
83
56
91
130
91
99
167
104
98
185
116
96
157
100
104
176
110
102
190
128
113
154
111
133
87
65
102
88
63
97
88
64
100
113
76
110
119
78
104
142
100
121
126
86
114
134
99
129
109
75
108
80
50
80
74
46
85
99
57
84
113
68
98
111
73
104
97
59
91
98
57
85
99
51
63
70
39
57
70
39
61
67
36
42
88
39
28
108
40
15
96
33
18
95
38
30
125
45
22
136
55
22
123
55
19
87
46
34
81
45
40
111
56
29
92
52
29
88
42
34
63
36
35
79
42
34
67
34
38
91
42
25
97
51
60
84
69
67
59
56
33
54
59
32
56
59
31
102
69
58
97
47
38
56
30
39
58
30
40
71
39
36
88
54
40
97
53
34
92
50
34
98
49
32
102
49
31
124
63
29
89
48
37
112
52
31
140
58
18
123
45
14
93
36
19
68
29
39
40
22
55
49
29
64
151
82
66
106
70
101
89
57
97
89
63
104
84
53
97
74
47
81
42
23
39
84
44
62
109
69
98
117
85
117
80
54
94
103
67
101
77
58
108
130
79
81
93
48
92
111
68
98
102
91
150
76
56
104
80
65
123
73
56
106
