P3
# CREATOR: GIMP PNM Filter Version 1.1
80 24
255
90
109
139
93
112
142
95
114
144
98
117
147
102
122
151
101
124
152
103
127
155
105
129
157
107
131
159
110
134
162
116
135
165
118
137
167
121
140
170
123
142
172
125
144
173
127
147
170
130
150
174
133
153
177
141
161
185
148
168
192
150
170
194
152
173
196
161
182
202
169
190
209
178
198
215
175
193
213
165
183
203
163
181
201
172
190
210
181
199
218
181
198
216
187
205
225
159
180
201
151
173
196
158
180
204
88
112
149
43
69
127
41
73
124
46
74
125
42
69
125
43
72
128
40
69
125
39
68
124
37
66
122
36
65
121
37
66
121
39
69
124
44
74
129
46
76
131
53
84
136
54
86
139
48
80
133
58
90
143
63
95
147
61
95
145
54
87
139
44
76
135
53
85
142
62
95
147
52
86
137
50
83
139
47
79
139
47
81
139
53
88
140
64
95
148
84
110
152
175
196
221
179
196
218
164
183
207
80
112
161
53
86
129
151
181
209
158
180
202
160
179
200
149
172
195
155
176
196
187
206
221
205
220
231
224
237
242
220
235
242
90
109
138
92
112
141
93
112
142
95
114
144
98
118
148
98
121
149
99
123
151
101
125
153
104
128
156
107
131
159
113
132
162
116
135
165
119
138
168
119
138
168
121
140
170
121
141
169
122
142
170
124
144
172
128
147
176
132
151
180
136
156
185
140
160
187
145
165
191
151
172
195
158
179
200
161
179
199
163
181
201
167
185
205
178
196
216
187
206
223
189
207
221
188
207
222
175
197
213
167
190
208
186
208
227
107
131
165
58
85
138
56
88
136
62
92
138
46
73
128
44
73
129
41
70
126
40
69
125
39
68
124
38
67
125
39
68
128
42
71
130
44
73
132
46
75
135
46
78
135
46
82
136
48
84
138
60
96
150
47
82
137
49
82
139
50
81
141
52
83
143
56
88
141
71
105
150
74
106
149
66
96
144
58
87
139
82
112
160
73
102
148
137
157
192
152
175
206
118
146
171
128
155
177
138
160
182
96
121
155
91
115
146
96
120
146
104
125
153
109
128
160
107
131
161
103
127
156
110
135
161
121
146
170
123
150
172
119
144
167
85
102
128
89
106
132
91
108
134
93
110
136
97
114
139
97
117
145
103
123
151
108
128
156
109
129
157
109
129
157
115
132
161
121
138
166
123
140
169
125
141
170
125
142
171
123
142
172
123
142
172
124
143
173
124
143
173
126
145
174
129
149
174
130
150
175
134
154
179
137
157
182
151
170
194
156
171
195
165
182
202
175
192
210
178
195
212
192
208
224
200
216
231
194
211
227
179
196
214
178
198
216
174
195
218
122
144
179
52
80
130
44
75
134
44
73
128
42
72
127
42
71
129
40
69
127
41
70
128
40
69
127
39
68
126
40
69
127
42
71
129
43
72
130
43
72
130
42
73
130
42
73
130
42
73
130
42
73
130
42
73
130
45
74
134
49
77
135
54
81
134
67
94
141
75
99
141
77
101
140
80
104
142
103
125
162
121
142
175
132
150
183
123
141
172
117
136
166
94
113
143
93
112
142
92
111
141
92
111
141
93
112
142
93
112
142
95
114
144
97
116
146
103
122
151
106
125
154
108
128
156
114
134
162
120
140
168
126
147
170
80
97
123
81
98
124
83
100
126
86
103
129
88
105
131
87
103
129
94
110
135
109
126
151
129
145
170
140
156
181
128
145
169
130
148
172
131
149
173
129
147
171
138
156
180
138
157
185
140
159
188
140
159
188
128
147
177
127
146
174
125
145
170
127
147
172
130
150
175
134
154
179
139
158
182
151
167
190
173
190
210
181
198
216
178
195
212
177
194
211
189
205
222
196
215
225
202
220
236
146
162
194
121
138
176
120
141
174
101
130
167
43
75
121
44
75
128
44
73
130
44
73
131
41
70
128
41
70
128
39
68
126
39
68
125
38
67
125
40
69
127
41
70
128
41
70
127
40
70
128
41
72
129
42
73
130
46
77
134
49
78
135
50
80
136
51
81
133
64
92
139
72
99
140
79
104
142
81
106
144
84
109
147
88
111
149
102
123
156
111
130
163
111
130
161
110
129
159
101
121
150
102
121
151
106
125
155
109
128
158
96
115
145
94
113
142
93
112
142
97
116
146
107
127
151
122
142
166
126
146
170
136
156
181
149
169
193
158
179
199
70
86
108
70
86
108
69
85
108
71
87
110
73
89
112
76
92
117
79
95
120
83
99
124
94
110
135
107
123
148
119
135
155
135
152
171
145
162
182
151
168
188
158
175
195
160
176
197
162
179
198
183
200
217
186
203
218
159
177
192
137
154
180
130
148
173
128
145
172
135
152
178
142
160
185
148
164
191
155
171
196
162
178
202
155
171
193
152
169
189
163
179
202
189
205
220
202
216
229
207
219
236
177
190
210
189
202
223
184
198
226
100
121
160
48
79
132
44
77
137
48
78
134
50
80
134
46
76
130
46
77
128
44
78
128
46
77
134
50
75
128
108
135
171
83
112
156
53
80
136
50
78
136
45
78
136
50
80
135
70
94
141
80
105
149
97
121
157
165
185
214
141
162
192
116
140
179
60
94
141
53
87
148
57
92
145
109
138
171
143
163
194
130
146
173
111
128
153
103
120
146
106
123
149
114
131
157
108
125
153
100
117
144
103
120
147
103
120
147
107
124
151
106
126
152
108
128
154
113
133
160
129
149
175
126
146
172
109
129
154
60
76
99
61
77
100
63
78
101
64
80
101
64
80
103
66
82
107
68
84
109
71
87
112
75
91
116
78
94
119
84
100
125
99
115
139
115
131
156
118
134
159
108
124
148
120
136
160
134
150
174
143
159
181
160
176
196
177
194
213
179
194
212
169
185
203
173
188
204
180
195
213
187
203
219
192
209
225
174
191
208
162
179
200
155
171
195
147
163
188
142
158
183
161
176
201
182
194
214
205
218
228
202
215
223
205
215
227
211
224
231
192
210
229
79
108
150
57
87
139
70
96
145
92
120
168
96
123
168
84
112
154
82
111
150
96
120
162
134
153
190
169
189
210
147
170
198
99
122
163
95
123
167
83
113
159
65
92
134
138
161
196
175
189
218
186
198
219
189
201
217
166
183
205
137
159
193
117
136
176
153
176
209
115
145
183
77
105
158
95
122
164
150
168
197
136
153
179
108
125
151
110
127
154
115
132
159
95
112
142
92
109
140
90
106
138
86
103
135
82
99
130
75
94
125
72
91
122
82
101
132
92
111
141
101
120
150
111
131
157
53
64
81
54
65
83
56
67
85
58
70
88
60
72
90
63
76
100
65
80
103
68
83
106
71
86
109
77
91
114
78
94
119
81
97
122
83
99
124
86
102
127
89
105
131
97
113
138
111
127
153
120
136
161
133
149
174
146
162
186
161
178
196
171
187
204
188
201
216
196
209
222
191
204
219
174
190
206
186
200
219
192
207
228
148
163
185
141
156
179
144
160
185
149
165
190
162
179
199
181
198
216
192
207
224
210
219
230
213
221
227
209
221
228
181
200
219
122
143
176
93
116
161
86
114
161
77
104
152
98
121
164
99
121
164
114
137
174
132
156
183
134
158
186
121
144
182
101
128
164
121
149
184
103
129
174
96
123
168
105
131
172
148
165
198
200
216
230
211
228
237
174
189
211
170
187
206
198
215
226
201
215
229
190
202
223
159
175
204
133
159
192
139
158
185
144
160
187
105
122
150
94
111
141
87
103
136
80
99
131
77
96
128
73
92
124
70
89
121
71
90
122
73
92
124
78
97
128
81
101
129
87
107
133
97
117
142
109
129
153
46
57
75
48
59
78
51
62
80
53
64
82
54
66
84
56
70
93
60
75
98
64
78
101
69
83
106
73
88
111
78
94
119
82
98
123
86
102
127
90
106
131
93
109
134
97
113
138
102
118
143
103
119
144
105
121
146
108
124
149
117
133
156
136
152
172
163
177
196
182
195
213
180
194
210
164
180
195
170
185
203
149
164
184
151
166
188
143
158
181
146
162
187
152
168
192
167
183
203
175
192
210
172
190
205
181
196
209
203
212
227
196
205
220
195
209
221
186
205
221
148
168
190
178
194
219
139
159
192
85
112
157
60
92
147
54
86
144
52
84
143
53
85
144
52
84
142
53
86
142
51
84
142
54
86
148
49
83
141
53
87
139
123
146
188
150
169
194
173
193
213
135
153
185
140
159
189
166
180
205
177
187
206
209
221
233
190
205
223
146
167
196
160
178
206
178
195
222
123
141
169
99
116
146
95
111
143
91
110
142
92
111
143
95
114
146
101
119
151
107
126
157
116
136
163
121
141
165
126
146
169
137
157
178
162
183
201
205
219
228
45
56
75
45
56
76
47
58
77
48
59
78
50
61
81
53
64
86
57
67
89
58
69
91
61
72
94
64
75
97
67
82
105
73
88
111
81
95
118
88
103
126
84
99
122
87
103
128
92
108
133
93
109
134
95
111
136
96
112
137
105
121
145
113
131
151
130
147
165
149
166
182
159
176
192
171
189
203
181
198
214
147
164
181
147
164
184
139
155
178
132
148
173
136
152
174
158
171
190
176
189
205
186
199
213
186
202
216
188
203
219
185
200
219
185
199
220
175
191
212
171
185
210
184
194
214
207
223
236
146
164
200
55
81
139
50
82
141
50
82
141
51
83
143
51
83
142
50
83
143
50
83
144
50
83
144
50
83
144
51
85
146
60
95
149
68
103
155
74
109
162
68
103
156
67
103
155
80
113
160
122
150
189
132
157
188
122
148
182
106
137
180
127
158
203
115
141
178
175
194
223
181
198
223
168
187
213
141
165
203
143
166
200
169
190
217
184
201
220
204
219
233
205
220
235
187
207
222
193
214
232
204
221
236
226
237
246
232
242
245
56
67
91
55
65
89
52
62
87
50
61
85
50
60
84
48
60
82
50
61
83
52
63
85
54
65
87
55
67
89
57
73
96
62
77
100
67
82
105
71
86
109
76
91
114
79
95
120
85
101
126
88
104
129
86
102
127
87
103
128
91
106
133
98
114
140
102
118
143
108
124
146
117
134
154
146
163
181
140
156
177
116
133
155
125
141
165
117
133
159
126
142
167
137
152
174
152
167
186
185
197
214
211
222
234
211
220
232
192
205
219
170
187
206
149
169
195
154
174
197
175
190
214
188
199
224
190
206
221
172
192
216
82
110
158
59
91
150
51
83
142
50
82
142
50
82
142
49
84
144
48
85
146
49
87
146
52
89
149
54
92
152
55
93
153
57
94
155
58
97
157
63
101
162
68
106
166
67
108
164
71
109
166
76
111
169
74
110
167
71
112
167
90
125
173
163
185
215
211
226
237
192
211
230
139
170
208
93
135
189
98
137
189
127
160
202
148
175
205
191
210
231
210
225
237
183
206
226
152
184
215
123
158
196
139
173
213
172
197
213
54
67
92
55
68
94
56
69
94
56
69
94
56
69
94
55
70
93
55
71
94
55
71
94
55
71
94
55
70
93
57
71
97
60
74
101
63
77
103
67
81
107
71
85
111
79
95
120
83
99
124
85
101
126
91
107
132
108
124
149
110
126
151
108
124
149
104
120
145
104
120
145
103
119
144
103
119
144
103
119
144
107
123
148
103
119
144
111
127
152
120
136
159
135
151
174
137
154
176
143
160
182
150
166
189
157
174
195
166
183
202
164
183
206
143
164
194
137
157
186
167
185
207
188
204
224
149
167
198
105
130
178
58
89
150
49
83
147
49
83
147
50
84
148
51
85
150
51
86
150
51
89
152
53
91
155
54
92
155
56
94
158
60
98
159
61
100
159
62
101
160
65
104
163
70
109
168
68
107
169
67
107
166
68
108
164
72
112
167
79
121
174
142
175
209
142
173
207
128
158
199
134
164
205
150
180
218
118
155
199
103
144
200
101
140
201
135
165
207
205
222
239
184
209
234
149
180
211
146
181
216
152
187
222
148
180
213
176
201
217
54
64
85
54
64
84
53
63
84
55
65
85
56
66
87
55
70
93
57
72
95
59
74
97
60
75
98
60
75
98
61
75
101
64
79
105
68
82
108
74
88
114
79
93
119
84
100
125
87
103
128
95
111
135
117
133
158
143
159
183
142
158
182
131
147
171
129
145
170
126
142
167
123
139
163
117
133
158
122
138
162
117
133
158
102
118
143
100
116
143
105
122
148
113
129
157
120
136
164
123
139
168
125
142
170
133
150
181
152
169
205
119
139
173
140
163
191
147
167
193
162
179
205
177
196
224
118
143
185
49
83
143
50
85
151
51
85
149
53
87
151
54
88
152
55
89
153
55
91
154
56
94
156
57
95
158
59
97
159
60
98
160
62
100
161
65
104
163
66
105
164
68
107
166
69
108
167
69
109
170
71
111
169
72
113
169
77
118
172
83
123
176
103
137
182
166
188
219
205
218
231
210
223
236
200
219
241
125
157
200
135
167
207
164
192
223
163
187
214
179
203
225
208
227
239
217
232
242
209
223
232
209
226
237
192
215
231
195
215
230
48
60
77
48
59
77
50
61
79
53
64
82
56
68
85
56
71
94
57
72
95
59
74
97
61
76
99
63
78
101
63
79
104
66
82
107
74
90
115
87
103
128
91
107
132
89
105
130
88
104
129
102
118
139
130
147
166
159
176
195
162
178
194
161
177
192
157
173
189
158
173
189
149
166
183
148
166
187
132
149
174
126
143
171
103
120
149
100
118
149
98
119
153
98
120
158
94
118
160
89
114
159
74
102
151
60
92
144
62
93
150
53
84
143
67
99
152
79
110
159
76
106
157
70
101
156
52
84
145
54
88
152
52
87
152
51
89
152
52
90
153
54
92
155
54
93
156
57
95
157
59
98
157
61
100
159
63
102
161
64
103
162
64
104
163
65
105
164
68
108
167
70
110
169
73
113
172
77
116
171
92
129
181
106
141
187
118
152
195
118
152
193
136
163
197
171
194
222
169
191
215
162
187
214
143
173
209
161
189
218
186
209
228
213
228
239
225
236
244
213
224
239
199
214
231
196
211
227
214
227
240
227
238
249
219
229
239
204
219
232
46
57
75
46
57
76
48
59
77
51
62
80
56
68
86
59
74
97
59
74
97
63
78
101
67
82
105
69
84
107
67
83
107
72
88
113
81
97
122
91
107
132
98
115
140
112
128
154
104
120
146
110
127
149
133
150
170
146
164
183
145
161
179
147
164
181
159
175
192
167
183
200
163
179
197
142
162
187
97
119
160
90
116
165
82
111
156
81
112
153
66
97
146
57
89
139
58
91
144
56
90
147
56
90
147
54
89
147
52
87
151
52
87
151
60
95
155
76
109
166
64
97
155
56
89
148
58
95
156
56
94
155
55
93
155
57
95
158
59
97
160
60
98
160
61
99
161
62
101
162
63
102
161
64
103
162
66
106
165
70
109
168
72
111
170
74
114
173
76
116
175
78
118
177
78
118
176
100
133
177
161
185
217
196
207
227
207
216
231
205
220
238
164
186
220
135
164
202
138
173
212
139
173
213
137
167
209
125
160
202
115
153
199
120
156
202
152
182
215
187
212
229
177
199
222
177
197
217
185
201
219
194
209
223
194
210
224
188
209
226
46
58
80
53
64
86
59
71
93
55
67
88
56
68
90
60
76
101
65
81
106
68
85
110
75
91
116
83
99
124
81
100
123
81
99
124
81
98
126
93
110
139
97
115
145
91
113
146
80
101
140
90
110
150
106
127
164
104
126
157
112
134
164
124
145
174
131
150
177
144
161
187
146
164
192
99
125
161
64
94
143
56
88
144
64
95
148
70
97
146
83
112
155
109
136
174
102
127
163
111
135
172
121
145
187
92
123
169
67
101
151
68
103
157
82
113
164
79
109
160
80
113
165
79
112
164
80
116
170
68
105
160
61
100
158
64
102
162
65
104
163
63
102
161
65
105
163
69
106
164
72
110
165
72
114
168
76
117
171
78
116
172
76
114
172
80
119
176
86
125
182
84
123
180
86
125
182
88
126
178
94
132
182
91
130
179
106
145
195
102
140
191
92
133
187
92
133
189
92
132
189
92
134
190
94
135
191
98
140
191
101
142
193
101
142
193
99
140
189
109
150
198
115
152
199
152
180
216
188
207
230
191
211
228
176
204
223
149
180
212
57
72
97
61
77
101
66
82
106
72
89
113
77
94
118
82
98
122
95
110
134
104
120
143
119
135
160
118
136
163
82
106
146
74
96
139
74
97
141
74
97
143
74
97
143
68
97
139
63
90
140
51
78
134
50
77
133
53
80
133
100
123
168
101
126
171
73
100
148
60
89
137
78
105
153
107
129
172
102
128
164
116
141
169
153
173
197
163
179
201
168
187
208
139
157
182
165
180
204
178
193
212
159
176
194
158
176
203
162
179
204
133
153
185
117
146
186
84
118
168
65
100
155
61
98
154
61
100
159
61
101
160
62
102
161
65
104
162
69
107
164
75
113
168
76
113
168
91
122
176
109
136
183
128
152
189
137
160
197
121
148
194
91
126
178
82
120
176
83
121
179
80
118
175
82
121
178
85
126
182
88
128
184
94
133
189
89
129
185
87
129
184
92
135
187
93
135
185
109
147
193
128
159
202
143
170
210
149
180
215
150
180
214
142
172
207
137
169
205
135
167
206
148
180
211
143
174
207
142
173
211
137
169
208
136
167
207
130
167
209
65
81
104
71
86
110
76
91
115
89
105
128
94
110
133
110
126
145
140
152
167
151
165
180
135
156
184
60
84
126
46
73
128
45
72
127
51
78
134
51
78
133
50
77
132
47
78
136
47
78
135
48
79
136
48
80
137
50
81
139
53
85
142
59
91
145
55
88
140
57
90
140
79
111
157
97
122
159
118
141
174
127
146
174
139
155
179
167
182
202
173
188
207
159
174
193
155
170
189
164
181
198
171
186
208
158
172
195
178
192
212
156
175
201
107
136
177
86
122
171
67
105
158
69
106
165
68
104
164
73
110
163
74
110
164
77
111
164
103
134
175
131
158
190
119
141
172
109
130
164
116
139
173
123
143
173
151
171
195
179
197
216
167
191
219
114
141
179
122
152
198
100
134
184
97
133
182
105
141
189
106
138
185
125
157
203
99
134
183
95
136
188
122
158
203
126
162
203
140
173
212
166
190
220
189
204
224
202
218
230
210
223
231
215
226
234
204
219
235
172
191
221
132
166
204
114
150
192
119
153
199
118
154
197
129
166
203
137
171
204
77
94
121
82
99
128
87
105
134
92
109
140
102
119
150
109
129
152
120
137
160
117
135
161
83
106
146
50
77
130
45
77
133
45
76
133
46
77
133
46
77
134
46
77
134
47
79
136
49
80
138
50
81
138
51
82
139
51
83
141
51
86
145
52
87
144
54
90
146
53
89
142
63
98
149
77
105
156
93
119
163
107
129
163
127
147
172
146
166
185
150
169
190
127
144
177
119
135
171
145
164
188
166
183
202
165
180
199
172
187
204
169
189
211
122
148
184
89
121
165
85
119
163
97
127
175
101
128
172
124
148
187
121
145
181
109
132
168
109
131
162
105
126
157
112
131
167
109
131
164
111
134
164
124
146
174
127
148
175
155
174
202
131
149
184
119
137
170
158
177
203
155
174
199
158
176
205
169
185
213
165
185
214
151
176
210
147
171
206
148
170
202
167
188
213
154
180
210
140
174
213
102
140
185
116
152
198
148
179
211
167
191
220
178
194
219
182
197
219
167
185
205
147
170
199
118
142
175
130
154
190
124
149
183
111
136
165
123
147
173
68
93
130
62
87
127
66
92
138
50
79
130
49
78
132
60
86
132
67
92
137
70
95
140
83
108
151
71
97
142
60
93
143
55
89
140
52
86
140
51
85
142
49
83
141
48
83
140
49
84
141
50
85
141
50
86
142
53
88
144
57
93
146
62
96
148
65
97
147
71
101
150
83
112
160
85
111
158
95
118
160
111
131
166
113
131
159
134
150
174
152
170
192
146
163
195
133
149
182
154
171
195
162
179
198
155
172
191
161
178
197
162
179
199
152
167
197
137
153
186
133
154
184
120
141
172
140
161
191
137
159
189
125
145
176
118
136
167
104
123
154
107
125
157
109
128
160
108
127
160
108
130
160
114
137
161
112
134
161
108
129
161
103
126
160
99
123
156
93
116
150
94
118
152
109
133
167
125
143
170
179
196
220
158
175
199
177
194
218
171
188
211
162
182
214
134
162
197
125
159
201
118
154
198
117
151
192
104
142
190
122
152
189
153
174
197
149
167
192
109
131
166
107
126
166
88
110
150
79
103
141
78
103
142
78
105
143
82
108
147
65
92
136
63
91
135
60
90
135
60
91
138
60
91
140
59
91
139
67
96
142
76
102
146
88
111
152
103
124
163
108
129
159
102
125
158
92
117
156
83
111
153
76
106
150
72
103
149
70
101
147
70
100
147
69
100
147
79
108
154
102
125
160
114
137
170
122
143
174
126
147
177
121
140
172
96
123
158
93
117
152
103
125
156
115
132
161
116
131
159
118
132
162
124
138
164
140
155
176
145
160
179
148
164
183
145
161
183
152
169
186
159
177
192
153
170
190
152
170
195
138
158
185
145
165
192
133
152
179
122
141
166
132
150
175
132
148
174
129
146
171
138
154
179
141
157
182
139
156
179
147
165
184
156
174
194
147
165
192
110
128
164
102
124
157
99
123
153
98
121
152
107
130
160
121
144
174
133
149
176
148
164
188
163
179
199
175
192
207
190
208
220
182
197
216
166
186
210
154
180
207
138
165
195
141
167
197
164
178
205
173
188
212
141
160
183
118
139
166
98
120
152
89
110
143
82
105
140
77
101
135
71
97
130
65
93
125
63
89
122
84
108
144
86
111
141
85
111
140
80
105
139
75
99
139
71
98
139
67
97
138
65
95
138
62
95
140
62
95
141
65
97
141
72
103
145
79
108
149
86
113
153
93
119
157
94
121
158
94
120
158
93
120
159
91
117
160
84
111
154
81
112
158
82
113
158
87
117
159
95
123
163
106
131
169
120
141
174
111
137
171
103
128
160
108
126
154
113
128
156
104
122
155
105
123
155
102
122
151
108
128
154
114
133
158
135
152
172
151
168
188
129
145
166
137
154
174
138
158
185
112
137
171
108
131
165
114
136
169
100
120
152
96
117
147
98
119
148
117
137
165
121
137
163
136
152
177
159
176
193
185
199
212
176
191
209
169
189
217
112
141
180
125
153
190
130
157
190
132
157
188
147
171
201
145
167
196
136
159
188
125
149
180
126
148
182
121
144
175
131
155
179
162
176
200
174
190
209
176
193
209
169
187
205
135
154
179
120
140
167
113
133
160
103
122
149
108
128
154
101
121
148
96
119
149
92
115
146
89
112
143
77
100
131
73
95
126
68
91
123
82
99
135
91
109
139
97
116
141
98
116
142
94
113
142
82
109
146
76
106
144
70
101
141
65
99
141
64
97
141
62
98
144
65
99
143
69
102
144
74
104
145
79
107
148
86
115
151
84
113
151
89
117
156
105
133
173
87
116
158
80
112
160
80
112
159
82
112
158
84
114
157
99
126
168
121
145
178
103
130
165
95
122
157
107
131
163
107
129
160
96
118
153
92
114
146
84
105
135
80
102
130
84
103
130
98
114
139
112
128
153
106
122
148
101
117
144
110
124
150
123
136
162
119
134
162
97
114
142
91
110
140
88
108
138
94
113
142
101
120
147
113
129
154
138
154
178
166
183
201
175
192
206
166
183
202
150
172
199
126
155
192
117
151
190
117
150
187
120
152
186
127
156
191
126
155
190
115
146
191
108
142
186
113
147
187
107
142
181
110
144
186
119
151
193
116
148
185
123
152
184
102
128
159
87
110
143
81
101
130
81
99
129
83
102
130
82
100
129
80
99
128
81
103
134
84
106
136
95
118
146
87
110
140
86
110
141
87
108
136
77
102
131
78
103
133
81
106
137
87
112
142
84
108
139
78
103
141
75
103
142
68
100
141
64
98
142
59
95
141
63
96
141
72
103
140
78
107
137
81
104
137
82
101
137
108
124
152
96
113
139
95
112
136
129
146
168
136
153
175
117
137
162
123
142
169
120
140
166
116
136
162
119
137
164
131
146
169
146
161
183
135
155
179
96
124
156
86
116
152
90
108
141
102
121
146
133
150
170
118
133
154
127
141
162
126
140
160
117
133
156
89
106
134
85
105
135
88
105
136
86
104
134
88
105
136
84
101
131
83
100
130
85
102
132
97
114
143
119
136
163
124
142
165
134
152
171
156
171
188
164
179
193
158
174
190
170
186
203
174
191
208
143
167
190
136
162
187
136
160
185
125
149
178
118
146
180
124
154
187
115
149
186
101
141
183
103
144
187
107
144
184
107
146
183
105
141
181
107
138
178
114
139
173
119
143
167
135
154
174
128
146
166
138
156
175
125
143
163
119
137
156
111
132
157
119
142
163
124
150
171
114
141
165
97
125
153
89
115
145
65
95
134
66
97
135
66
96
134
67
96
134
68
97
134
69
100
135
71
101
136
75
104
137
79
108
142
72
101
137
72
100
140
76
101
134
83
106
135
78
98
129
61
80
112
63
80
113
76
93
124
88
105
133
99
116
142
94
111
134
111
125
145
127
141
158
135
147
164
141
154
170
130
143
161
146
161
179
147
159
173
146
159
172
135
151
170
122
141
166
104
119
147
110
124
145
135
149
165
130
142
162
126
138
159
127
139
159
120
134
156
98
114
139
99
115
142
78
95
124
80
97
127
74
91
121
75
92
122
77
94
124
81
101
129
85
105
132
89
109
135
91
111
138
92
112
141
95
116
145
104
127
154
98
117
143
110
126
150
137
152
174
149
162
182
152
169
190
115
138
167
110
136
169
108
135
169
119
143
176
121
148
181
113
145
179
120
151
180
123
152
175
131
155
177
131
154
179
128
150
177
128
148
174
122
143
164
126
145
163
130
149
166
150
168
185
133
152
168
139
158
174
132
156
170
134
159
180
122
150
176
130
160
185
126
156
177
106
135
163
