P3
# CREATOR: GIMP PNM Filter Version 1.1
80 24
255
200
225
254
191
221
254
142
194
254
127
185
254
134
186
254
177
213
254
205
230
254
150
198
254
108
172
254
135
184
254
167
206
254
185
215
254
166
203
254
108
169
254
85
154
254
87
155
254
103
165
254
92
158
254
91
158
254
95
159
254
105
164
254
103
163
254
111
167
254
118
171
254
155
195
254
182
214
255
210
233
255
239
246
255
242
248
255
189
218
254
175
208
254
194
222
254
208
234
255
221
244
255
216
242
255
210
236
255
204
230
254
186
215
254
157
194
255
129
173
254
114
163
254
109
159
254
112
160
254
124
169
254
141
180
254
164
196
254
171
203
254
152
189
254
139
179
254
131
174
254
130
174
254
135
176
254
125
168
254
74
134
254
85
139
254
151
187
255
234
243
255
252
254
255
255
255
255
248
251
255
251
253
255
255
255
255
254
255
255
252
255
255
254
255
255
237
250
255
241
251
255
249
254
255
253
255
255
254
255
255
255
255
255
255
255
255
255
255
255
255
255
255
255
255
255
255
255
255
255
255
255
254
255
255
251
255
255
251
255
255
152
203
254
160
207
254
139
194
254
110
177
254
186
218
254
239
250
255
255
255
255
254
255
255
231
248
255
222
240
255
231
247
255
250
254
255
253
254
255
255
255
255
230
242
255
169
208
254
157
198
254
138
187
254
91
159
254
111
169
254
96
159
254
106
165
254
85
153
254
88
155
254
90
155
255
95
158
254
102
161
254
116
169
254
127
175
255
125
174
254
131
178
254
135
180
254
142
185
254
149
190
254
159
196
254
174
207
254
204
230
255
220
243
255
213
237
255
204
230
255
188
215
254
174
205
254
178
208
255
168
201
254
152
188
255
138
177
254
146
185
254
152
189
254
131
173
254
81
142
254
39
118
254
24
111
254
20
109
255
16
106
254
30
112
254
75
135
254
156
187
254
128
170
254
85
144
254
79
139
254
106
155
254
175
204
254
162
193
254
142
181
254
113
160
254
108
160
254
116
163
254
210
233
255
236
253
255
246
255
255
243
255
255
244
255
255
242
255
255
246
255
255
239
255
255
237
251
255
243
254
255
254
255
255
254
255
255
253
255
255
83
167
254
78
163
255
81
164
255
100
173
255
82
162
255
104
174
254
124
185
254
160
207
254
158
206
255
135
191
255
124
181
254
130
185
254
154
201
254
134
188
254
140
191
255
154
202
255
139
190
254
114
173
254
92
161
254
86
157
254
105
168
254
106
169
254
66
145
254
67
146
254
69
146
254
71
147
254
71
147
255
74
147
254
79
149
254
85
153
254
86
152
254
94
155
254
106
163
254
112
167
254
121
171
254
126
173
254
135
179
254
151
190
255
165
200
254
177
208
254
190
219
255
198
225
254
198
225
254
213
237
255
217
240
254
197
223
255
164
198
254
130
174
254
103
156
255
103
157
255
100
153
254
76
141
254
34
118
254
18
109
255
15
108
254
23
111
254
47
125
254
36
118
254
10
104
254
12
104
254
17
106
254
37
115
254
70
133
254
87
142
254
145
180
254
179
205
254
157
189
254
219
240
255
248
254
255
255
255
255
254
255
255
255
255
255
242
251
255
158
193
254
215
233
254
244
251
255
252
255
255
255
255
255
255
255
255
255
255
255
91
173
254
88
171
254
88
170
255
87
168
255
87
167
255
86
166
255
84
165
255
84
165
255
82
164
255
83
162
254
81
162
254
80
159
254
79
159
254
75
155
254
73
153
255
72
152
254
70
151
254
68
150
255
65
150
255
62
148
254
62
147
254
61
147
254
61
146
254
59
144
254
59
144
255
58
143
254
58
142
255
59
143
255
61
143
254
64
144
254
66
146
254
70
147
255
73
147
254
79
150
254
82
150
254
87
153
254
102
159
254
134
180
255
156
196
254
169
204
254
175
207
255
176
209
254
174
206
255
166
202
254
156
192
254
186
214
254
181
212
255
162
196
254
122
170
254
79
144
254
72
140
254
62
134
254
51
130
254
50
128
254
57
132
254
24
115
254
29
117
254
35
121
254
15
111
254
14
111
254
15
111
254
14
109
254
37
120
254
73
137
254
134
177
254
213
235
255
236
250
255
242
254
255
238
252
255
211
233
255
147
185
254
151
189
254
169
202
255
194
221
254
199
225
254
211
231
255
221
237
255
205
226
255
209
233
255
197
222
254
101
179
254
100
177
254
100
176
254
99
175
255
98
174
254
96
172
255
94
171
254
93
170
255
92
169
254
89
168
254
87
167
254
86
165
254
85
164
255
84
162
255
82
161
255
80
159
255
81
159
254
78
157
254
74
155
255
72
154
255
71
152
255
68
151
255
66
150
255
61
147
255
59
147
255
58
147
255
57
146
254
57
144
254
57
144
255
56
142
255
56
141
255
56
142
255
58
142
254
57
142
254
59
142
255
61
143
255
66
144
254
73
147
254
81
151
254
98
159
254
116
169
254
145
187
254
174
207
254
183
213
254
180
210
254
157
194
254
130
176
254
116
167
254
100
158
255
87
151
255
62
138
254
44
130
254
34
126
255
31
124
255
27
121
255
31
122
254
29
123
254
24
120
254
20
120
255
20
119
255
18
118
254
18
117
255
18
117
254
17
116
254
13
114
254
17
115
254
53
133
254
75
147
254
100
164
254
98
164
254
85
154
254
59
138
254
43
130
254
26
121
254
34
125
254
24
120
254
15
117
254
14
117
254
24
122
254
37
130
254
111
186
254
109
184
254
107
183
255
107
182
255
106
180
254
106
179
254
105
178
255
104
178
255
105
178
254
103
176
255
103
175
255
104
175
254
99
172
255
96
170
255
92
168
255
92
168
255
95
168
255
97
169
255
102
171
254
97
169
254
87
163
255
86
161
254
86
161
254
121
181
254
114
178
254
73
154
254
69
151
255
67
151
255
65
149
254
65
149
254
61
148
255
60
146
255
57
146
254
56
145
254
55
144
255
55
143
254
55
142
254
56
141
254
55
142
255
58
142
255
61
143
254
61
143
255
62
142
254
67
143
254
80
149
254
105
165
254
125
176
254
158
198
254
155
195
255
111
167
254
66
143
254
46
134
255
37
131
254
33
129
255
30
127
255
29
126
255
27
127
255
26
127
254
25
125
254
25
125
254
24
125
254
25
124
254
25
125
255
25
125
254
24
125
254
25
125
254
23
125
254
25
125
254
26
126
255
34
129
254
43
134
254
33
131
254
45
135
254
35
132
255
36
132
255
35
133
255
45
137
255
51
139
254
92
157
254
132
181
254
124
195
254
121
193
254
119
193
254
122
192
254
117
189
254
117
188
255
118
188
255
125
191
255
115
185
254
114
185
254
117
186
254
111
183
255
109
181
254
108
180
255
109
178
255
122
184
254
124
186
254
141
195
255
153
201
254
150
198
254
118
181
254
104
173
255
116
180
254
132
188
254
148
197
254
120
180
254
104
170
254
90
164
254
80
158
254
77
156
255
76
155
254
74
153
255
71
152
254
69
151
254
66
150
254
65
148
255
64
147
255
62
147
255
62
146
254
62
147
254
64
146
255
69
149
254
82
155
254
86
157
254
72
148
254
69
147
255
68
147
255
65
146
255
65
145
254
68
147
255
61
143
255
53
140
254
44
136
255
40
135
255
38
133
255
38
134
254
36
132
255
32
131
255
29
128
255
31
129
254
29
129
255
31
130
255
34
132
255
35
132
254
35
133
254
35
133
254
34
132
255
34
132
255
35
133
255
37
133
254
56
141
254
80
152
254
130
179
254
202
228
255
212
235
255
186
219
254
172
208
254
190
219
255
176
214
254
169
210
255
139
204
255
136
203
255
135
201
254
134
200
254
134
198
254
133
199
255
134
198
254
134
197
254
140
200
255
141
200
255
138
197
254
133
195
254
128
191
255
124
189
254
122
187
255
119
186
255
118
186
255
118
185
255
117
184
255
132
192
254
128
189
254
112
180
255
108
177
255
105
176
254
104
173
255
99
171
254
109
174
254
104
172
254
95
167
254
92
166
254
91
164
254
88
162
254
85
162
254
85
161
255
82
159
254
82
157
254
79
156
255
79
156
254
74
154
254
72
152
255
72
152
255
77
155
254
80
157
254
72
151
255
74
152
254
100
164
254
78
154
254
70
150
254
65
149
254
63
147
255
62
146
255
60
145
255
58
144
255
57
143
254
58
143
254
63
146
255
77
153
255
151
196
255
194
219
254
176
210
254
185
215
254
159
201
254
104
172
254
85
162
254
63
150
255
49
141
254
48
141
255
47
140
255
48
142
254
47
141
255
47
142
254
64
148
254
118
175
254
155
199
254
133
185
254
110
173
254
103
169
254
102
168
254
114
176
254
131
188
255
155
215
254
153
213
255
151
212
254
149
210
255
148
210
255
150
210
254
153
210
255
159
213
254
173
219
255
189
229
255
210
238
255
232
248
255
243
249
255
234
247
255
230
245
255
221
241
255
185
223
255
143
199
254
130
193
254
126
190
255
124
188
254
122
188
255
121
186
255
118
185
255
116
184
255
115
181
255
115
180
255
112
179
255
111
178
255
108
176
255
104
173
255
106
174
255
105
173
255
104
172
254
116
177
254
163
206
254
152
197
253
155
199
254
160
202
254
159
201
254
158
200
254
152
198
255
125
182
255
97
165
255
98
165
255
98
165
255
98
165
254
98
165
254
88
160
254
83
157
254
79
155
255
79
155
255
78
154
254
76
153
255
113
172
254
143
190
254
183
215
255
178
213
255
195
223
255
202
226
255
206
230
255
155
197
254
149
196
254
161
205
255
171
209
255
134
186
254
75
154
254
65
150
254
60
149
254
64
151
255
63
151
255
62
150
254
62
150
254
64
151
255
64
152
254
65
152
254
81
160
254
115
182
254
105
176
254
68
156
254
167
223
254
166
221
255
166
220
255
164
219
255
163
218
254
162
217
255
161
215
254
159
214
255
158
213
255
157
212
254
160
214
255
170
218
255
194
230
255
216
238
255
226
243
255
224
243
255
206
236
255
183
223
254
154
206
254
141
200
255
136
197
254
135
196
254
134
195
255
133
193
255
132
193
254
130
190
254
129
190
255
127
188
255
126
187
255
126
185
255
152
200
254
125
184
254
120
181
254
119
182
255
127
185
254
141
191
254
165
206
255
223
239
255
255
255
255
255
255
255
255
255
255
255
255
255
255
255
255
194
223
254
153
198
254
130
183
254
131
183
255
138
189
254
123
179
254
104
168
255
107
170
255
108
170
255
174
207
254
224
237
254
214
232
254
153
196
254
120
177
254
138
187
253
234
245
254
247
250
255
246
250
255
255
255
255
255
255
255
255
255
255
245
250
255
239
249
255
235
244
254
230
242
255
213
234
255
152
199
254
145
193
254
148
196
255
139
190
254
132
187
255
132
186
254
126
183
254
119
180
254
120
180
254
128
186
254
142
193
254
176
228
255
175
228
255
173
226
255
173
225
255
172
224
255
171
224
255
170
223
255
170
222
255
167
220
255
166
218
255
166
217
255
165
216
255
164
215
255
162
213
255
162
212
255
161
211
255
160
210
255
160
211
255
155
207
255
153
205
255
151
204
255
149
202
255
149
200
255
146
199
255
145
198
255
144
198
255
142
196
254
141
196
254
140
194
255
138
194
255
136
192
255
143
194
254
143
195
254
134
190
255
133
188
255
131
187
255
131
187
254
133
187
255
138
190
255
147
195
255
147
195
254
149
195
254
149
195
254
146
191
255
139
188
255
136
185
254
156
197
254
181
213
254
216
238
255
225
243
255
201
226
255
178
211
254
191
217
254
239
247
255
241
249
255
222
240
255
205
229
255
170
205
254
202
227
254
231
244
255
255
255
255
255
255
255
255
255
255
255
255
255
255
255
255
255
255
255
235
253
255
218
244
255
209
237
255
183
218
255
191
223
254
214
234
254
227
242
255
159
202
255
134
188
255
128
185
254
131
188
254
117
181
255
111
179
255
110
180
254
190
237
255
188
235
255
187
234
255
186
233
255
185
231
255
184
230
254
183
229
255
183
228
255
183
228
255
181
226
255
181
226
255
180
225
255
178
225
255
177
223
255
176
222
255
174
220
255
172
218
255
171
217
255
170
215
255
168
214
255
167
213
255
165
212
255
162
209
255
160
208
255
159
207
255
157
205
255
155
203
255
154
202
255
152
201
255
150
199
255
150
199
255
152
198
255
151
199
255
149
197
255
145
195
255
145
195
255
144
194
254
142
192
254
139
191
255
138
190
255
137
190
255
138
190
254
138
190
255
145
192
255
153
197
255
154
197
255
157
200
254
161
201
254
160
201
255
163
203
255
167
205
254
169
207
255
165
204
254
158
200
254
155
198
254
157
199
254
153
197
254
159
201
255
165
204
254
171
208
255
177
212
255
189
219
255
195
223
255
196
225
254
192
223
255
183
217
255
185
217
254
201
226
254
218
237
255
221
239
255
224
241
255
215
237
255
196
224
255
192
221
254
184
216
255
185
217
254
166
203
255
168
205
254
169
206
254
183
217
254
204
244
255
204
243
254
203
242
254
202
241
254
202
241
253
200
239
253
199
238
252
198
237
252
196
236
252
195
234
252
193
233
251
190
230
245
185
226
236
183
224
231
180
222
229
178
218
225
175
216
222
173
213
218
171
211
215
168
208
212
166
205
209
167
205
209
183
212
208
190
214
208
196
216
211
193
216
217
209
226
227
216
231
237
232
243
247
216
237
250
181
216
251
173
210
251
170
209
252
177
212
252
190
219
251
175
210
252
182
214
252
209
231
253
212
233
253
204
229
252
206
229
254
183
216
253
168
206
253
163
202
254
172
208
254
216
235
254
237
249
255
237
248
255
248
253
255
231
244
255
218
237
255
194
222
254
225
240
255
199
226
254
179
212
254
194
221
254
198
223
254
161
202
254
147
195
255
151
197
255
152
198
254
152
197
254
164
204
255
156
200
255
167
207
254
180
215
254
150
199
254
150
198
254
152
200
254
146
197
255
152
199
255
167
207
254
175
211
254
178
212
255
189
220
255
197
224
255
202
228
254
200
227
255
199
227
255
202
230
254
174
221
111
181
228
103
179
227
95
174
223
88
172
221
78
170
219
69
166
213
64
160
208
52
158
204
46
154
201
39
150
197
35
149
195
34
148
194
33
145
190
31
144
189
31
142
186
32
138
183
30
136
179
29
130
175
29
123
168
27
121
166
27
119
165
27
114
160
26
112
158
26
110
156
26
108
153
24
105
150
24
100
145
23
96
141
24
93
135
24
92
134
29
94
134
31
92
132
36
92
130
40
87
126
45
86
125
50
84
121
55
82
119
61
81
117
67
82
117
74
86
121
80
91
125
88
91
126
93
92
127
101
93
129
108
96
130
115
106
138
125
111
142
133
126
154
143
153
171
155
167
182
166
172
186
177
177
194
188
193
206
201
204
215
213
189
209
225
207
223
238
230
241
251
236
247
255
243
255
255
245
254
255
253
255
255
255
255
255
255
255
255
253
255
255
245
255
255
243
252
255
238
247
255
235
246
255
240
250
255
235
246
255
224
238
255
218
235
255
209
230
255
233
245
255
246
253
255
227
241
255
198
224
255
179
213
255
176
213
255
165
216
34
166
216
32
165
215
33
163
215
30
161
213
30
157
210
30
157
210
30
155
207
31
158
207
32
156
206
30
153
201
32
151
200
33
149
197
33
144
192
34
143
189
36
142
188
35
138
185
36
137
182
35
136
180
37
138
182
37
135
179
36
135
178
37
133
175
37
132
174
36
125
167
35
126
168
36
125
166
37
126
169
36
124
167
37
120
164
35
120
164
32
116
160
31
116
160
30
117
162
30
112
156
30
110
152
31
108
153
32
110
154
33
108
152
33
105
147
33
100
141
33
96
137
33
93
132
34
89
128
31
86
125
30
80
118
29
76
112
26
71
107
25
69
105
25
65
101
23
63
98
23
58
95
21
57
92
22
54
89
21
50
86
20
48
82
18
45
80
17
44
78
18
42
77
17
50
81
27
66
93
44
77
105
64
92
117
81
104
129
100
112
138
119
127
150
136
138
159
148
138
160
161
139
160
171
154
174
192
162
177
191
149
168
199
136
158
203
134
155
201
114
139
195
107
130
193
130
151
204
154
171
217
171
185
219
138
160
212
134
182
23
135
184
21
133
183
21
133
182
22
133
183
22
135
185
21
143
193
20
142
193
19
147
198
19
146
198
21
143
194
22
142
193
22
143
195
24
144
195
24
142
194
25
142
194
25
143
194
28
144
195
28
143
194
28
142
191
29
144
192
29
142
191
28
144
192
27
147
196
26
145
195
26
140
190
28
140
190
29
140
187
32
137
184
33
138
184
34
138
186
34
139
186
35
135
184
34
133
180
33
133
182
32
136
184
34
134
181
34
131
179
35
129
177
36
125
173
33
125
172
33
125
172
35
122
169
33
123
168
34
118
163
34
115
160
33
108
153
32
103
149
32
103
147
30
105
148
28
100
144
29
99
142
27
93
136
25
89
133
23
90
133
22
89
132
23
85
127
23
83
123
24
77
118
24
71
111
23
67
106
23
62
100
22
60
97
21
56
93
21
54
91
20
52
89
19
49
86
19
48
85
19
47
84
18
45
81
18
44
81
18
44
80
21
44
80
25
50
84
29
50
85
32
53
88
36
57
91
40
55
89
43
56
90
46
59
91
50
102
145
17
101
146
16
99
143
16
103
146
16
111
156
18
113
160
17
111
160
17
114
162
17
115
163
18
111
159
16
118
166
15
122
170
16
120
168
16
122
169
17
124
171
19
124
172
19
122
170
19
124
172
18
124
174
18
123
173
19
125
174
19
128
178
18
128
179
20
124
175
20
127
178
21
130
181
22
133
183
22
130
181
25
129
179
23
131
181
25
133
182
28
133
181
30
137
185
31
134
182
32
135
183
34
137
184
34
137
184
34
140
186
35
134
183
35
135
182
35
134
181
36
133
182
36
138
187
36
135
185
34
136
186
34
133
184
33
134
186
34
134
185
33
130
181
33
131
181
35
130
180
33
131
181
34
126
175
33
122
172
33
122
172
32
124
172
31
124
172
31
124
173
31
123
170
31
121
168
31
120
166
30
117
164
29
113
158
29
109
154
30
106
151
28
105
149
30
97
142
28
94
138
28
90
134
27
86
130
25
85
129
27
83
126
26
86
128
27
85
128
27
83
125
27
82
122
28
82
123
27
80
120
27
79
119
28
81
123
29
72
106
14
74
110
14
72
107
15
75
111
15
75
112
16
75
111
14
75
110
15
75
112
15
73
109
14
75
114
14
78
116
15
78
117
14
73
111
13
82
122
16
85
125
17
80
119
17
84
125
16
89
130
16
89
129
18
92
134
17
92
133
17
94
136
16
95
137
16
97
142
17
97
141
16
96
142
17
98
143
16
99
144
16
97
143
18
97
142
19
103
149
19
103
150
19
104
151
21
105
153
21
103
150
22
105
151
22
105
151
22
107
154
23
111
158
24
112
160
25
112
161
27
114
164
26
114
163
28
118
167
27
118
167
28
121
169
29
122
170
30
122
171
28
123
171
30
124
173
30
124
171
29
126
173
30
127
174
30
124
171
30
123
169
29
121
167
28
120
168
30
116
163
28
113
160
28
113
160
27
116
165
29
114
164
27
118
167
27
120
170
28
118
167
27
117
166
27
118
167
28
119
167
27
117
166
27
116
165
28
116
166
27
115
164
29
113
161
28
114
161
31
111
157
31
111
158
32
105
150
31
110
156
32
113
159
34
114
160
36
37
68
5
38
69
6
40
71
5
39
71
4
40
72
4
43
74
7
45
74
8
51
77
14
48
74
12
46
73
13
48
77
11
47
75
13
46
74
11
47
75
12
46
78
9
48
77
12
48
78
8
52
84
10
51
82
9
53
83
13
55
88
8
56
90
7
58
92
9
57
91
8
57
94
8
57
92
8
55
90
9
60
95
9
63
100
10
65
101
11
64
102
11
63
100
12
64
102
12
65
102
12
67
106
13
70
108
14
73
112
14
73
112
14
76
114
14
75
113
13
77
115
14
82
122
16
84
123
16
85
123
16
88
126
18
91
130
18
94
133
19
96
136
20
97
136
20
98
138
22
99
138
22
101
140
23
103
142
23
106
143
23
105
143
23
108
144
23
109
146
24
113
150
26
113
150
27
115
151
27
118
155
27
122
157
29
122
156
29
123
156
30
121
155
29
119
153
28
115
147
28
115
149
29
114
149
29
111
145
31
110
144
30
109
145
29
109
145
30
108
141
30
110
146
31
108
142
34
111
145
34
106
139
33
105
139
32
105
139
34
26
32
20
22
29
18
21
31
12
27
36
19
32
37
26
35
37
30
36
31
34
33
25
32
33
27
28
29
29
27
30
29
24
31
33
24
29
31
23
32
37
23
33
40
18
34
42
21
41
48
22
46
56
24
47
55
21
51
58
23
53
61
26
44
59
15
51
69
16
51
73
14
55
78
15
59
83
19
58
84
14
61
88
15
61
87
16
62
91
14
64
94
15
66
96
14
61
90
14
60
90
11
62
95
11
62
95
11
61
92
10
59
90
11
56
87
10
59
90
11
61
93
11
63
94
10
59
92
11
58
90
12
65
95
14
71
100
12
67
96
14
67
96
14
70
101
15
64
95
14
63
94
15
65
95
14
61
94
15
61
93
18
63
96
17
59
89
18
63
93
17
58
87
19
59
90
14
60
91
17
60
91
16
61
91
14
61
93
16
61
90
18
67
94
19
68
94
19
63
92
18
61
91
22
61
90
20
57
89
21
62
94
20
54
86
18
57
86
20
51
83
15
58
88
17
55
88
17
56
87
19
55
87
18
53
85
17
57
87
18
41
68
15
43
70
12
41
68
12
47
74
14
54
80
11
49
78
12
54
83
11
55
85
12
59
89
12
56
88
10
59
92
11
62
94
12
62
96
12
59
93
12
60
94
12
59
93
13
60
93
13
56
90
12
58
91
12
57
91
12
60
93
12
57
91
11
53
85
11
54
88
10
58
91
13
58
91
13
60
94
13
59
92
13
54
87
12
57
89
13
58
89
11
57
90
13
61
93
12
68
98
15
61
93
13
60
93
12
61
94
13
62
95
12
61
94
13
62
94
12
63
95
14
62
95
12
66
100
12
65
98
13
64
100
13
63
97
13
64
98
11
61
95
12
60
93
10
59
92
13
57
91
10
58
90
11
57
90
10
53
88
10
53
86
9
51
84
11
49
82
10
50
84
11
55
88
12
49
82
9
53
84
11
49
81
10
46
80
10
51
84
10
51
83
11
53
85
12
49
80
11
50
81
8
51
82
9
46
79
6
45
76
8
58
86
8
45
76
8
47
78
9
49
83
10
43
77
6
42
76
6
42
77
6
40
74
6
42
75
7
57
91
10
56
89
10
58
91
10
56
88
9
56
88
8
55
87
9
55
87
8
58
90
8
57
89
9
57
90
7
59
92
9
55
88
7
55
89
7
56
90
6
59
93
4
56
90
7
61
95
8
58
92
6
61
95
7
60
94
7
61
95
6
62
96
5
61
95
6
61
95
5
59
93
7
64
97
8
61
93
6
59
93
5
64
98
9
64
98
6
66
101
8
64
97
7
63
98
7
60
94
6
63
95
7
61
94
6
56
89
4
56
89
5
60
94
5
57
91
5
59
94
6
60
96
4
59
95
5
58
93
6
50
84
3
51
84
4
48
81
3
50
84
4
53
87
6
51
85
4
44
77
4
54
88
5
50
84
4
52
87
5
54
88
6
50
84
4
53
85
7
54
89
6
53
86
8
48
81
5
45
78
4
49
83
5
51
84
5
49
84
5
43
76
5
45
78
4
49
82
4
44
78
5
45
80
5
41
75
5
40
73
4
42
75
5
37
70
4
39
73
4
33
69
3
38
73
5
41
76
5
52
83
7
39
72
5
38
73
6
51
82
3
47
78
2
49
78
2
51
81
3
52
84
2
47
78
3
47
78
2
50
80
3
48
79
2
54
85
3
57
88
3
52
83
2
52
84
3
49
81
2
51
83
3
53
85
2
56
89
3
53
87
2
55
88
4
55
88
2
50
83
3
54
87
2
55
88
3
54
88
3
57
92
3
55
88
4
54
87
3
53
87
2
54
88
2
56
91
3
51
86
2
51
84
2
56
90
3
56
90
2
57
91
3
56
90
3
55
89
2
54
88
4
56
89
3
55
90
3
55
90
3
54
87
4
54
88
3
53
88
2
55
89
3
58
92
4
53
86
4
58
93
4
54
90
4
58
92
5
54
89
3
53
87
5
52
86
4
58
93
5
54
90
4
55
90
4
54
90
4
52
86
3
55
89
4
51
86
2
52
85
4
57
90
4
52
84
4
52
86
3
49
84
4
51
85
4
49
83
4
49
83
4
48
82
4
48
82
3
48
81
4
54
87
6
53
85
4
50
85
4
51
85
5
50
84
4
54
88
5
52
86
5
51
86
4
54
88
5
52
85
3
43
77
2
48
79
3
48
81
2
48
81
2
51
84
2
54
86
2
50
83
3
50
83
2
51
85
2
50
82
2
49
81
2
45
77
2
48
81
2
49
82
2
52
85
3
49
83
2
44
77
2
45
77
3
52
85
2
51
85
2
49
81
3
60
93
4
48
80
4
58
92
3
57
92
2
62
97
3
61
95
3
56
91
3
61
96
5
58
91
4
60
95
4
60
93
5
58
93
4
62
97
4
60
94
4
61
96
3
65
100
3
63
96
3
58
91
3
65
100
4
64
99
4
63
98
3
60
94
4
63
97
5
60
95
4
56
92
2
51
86
3
55
89
4
52
85
5
52
84
3
56
91
4
56
90
3
56
88
4
54
85
6
56
89
4
53
85
4
50
83
5
55
87
7
62
95
5
62
96
5
52
86
5
59
91
6
56
88
5
56
87
4
55
86
5
55
86
4
54
84
5
58
88
4
54
85
3
54
85
5
50
81
4
49
80
3
50
81
4
54
86
3
47
80
2
43
77
2
42
75
2
36
71
3
43
77
3
