P3
# CREATOR: GIMP PNM Filter Version 1.1
80 24
255
255
255
255
255
255
255
255
255
255
255
255
255
255
255
255
255
255
255
255
255
255
253
244
245
249
216
220
249
215
219
246
194
200
247
200
205
247
200
205
245
188
195
243
176
183
244
177
184
243
175
183
241
162
171
240
153
162
239
147
157
237
132
144
234
116
129
232
100
115
230
88
104
229
79
96
228
70
88
226
62
81
225
53
73
224
43
64
222
29
50
219
12
35
218
3
27
228
72
89
255
255
255
255
255
255
255
255
255
255
255
255
255
255
255
250
250
250
184
184
184
103
103
103
39
39
39
5
5
5
0
0
0
14
14
14
57
57
57
126
126
126
211
211
211
255
255
255
255
255
255
213
213
213
75
75
75
20
20
20
25
25
25
22
22
22
22
22
22
22
22
22
22
22
22
22
22
22
22
22
22
20
20
20
23
23
23
139
139
139
255
255
255
251
251
251
197
197
197
109
109
109
45
45
45
8
8
8
0
0
0
1
1
1
25
25
25
71
71
71
140
140
140
214
214
214
255
255
255
229
229
229
88
88
88
0
0
0
95
95
95
255
255
255
255
255
255
255
255
255
255
255
255
255
255
255
255
255
255
255
253
253
242
166
174
215
0
15
216
0
19
216
0
22
216
0
21
216
0
21
217
0
22
217
0
24
217
0
24
217
0
24
217
1
25
217
1
25
217
1
25
217
1
25
217
1
25
217
1
25
217
1
25
217
1
25
217
1
25
217
1
25
217
1
25
217
1
25
217
1
25
217
1
25
216
0
21
224
48
68
255
255
255
255
255
255
255
255
255
255
255
255
216
216
216
52
52
52
0
0
0
6
6
6
52
52
52
131
131
131
152
152
152
106
106
106
28
28
28
0
0
0
2
2
2
106
106
106
255
255
255
209
209
209
54
54
54
0
0
0
36
36
36
117
117
117
119
119
119
118
118
118
118
118
118
118
118
118
118
118
118
117
117
117
119
119
119
190
190
190
250
250
250
107
107
107
0
0
0
2
2
2
57
57
57
140
140
140
173
173
173
160
160
160
104
104
104
34
34
34
5
5
5
108
108
108
236
236
236
250
250
250
201
201
201
172
172
172
202
202
202
255
255
255
255
255
255
255
255
255
255
255
255
255
255
255
255
255
255
255
253
254
244
180
188
216
0
21
217
1
25
217
1
25
217
1
25
217
1
25
217
1
25
217
1
25
217
1
25
217
1
25
217
1
25
217
1
25
217
1
25
217
1
25
217
1
25
217
1
25
217
1
25
217
1
25
217
1
25
217
1
25
217
1
25
217
1
25
217
1
25
217
1
25
216
0
21
223
43
63
255
255
255
255
255
255
255
255
255
230
230
230
85
85
85
0
0
0
33
33
33
187
187
187
255
255
255
255
255
255
255
255
255
255
255
255
249
249
249
142
142
142
0
0
0
8
8
8
133
133
133
223
223
223
54
54
54
0
0
0
78
78
78
255
255
255
255
255
255
255
255
255
255
255
255
255
255
255
255
255
255
255
255
255
255
255
255
255
255
255
166
166
166
8
8
8
0
0
0
136
136
136
255
255
255
255
255
255
255
255
255
255
255
255
255
255
255
252
252
252
249
249
249
254
254
254
255
255
255
227
227
227
80
80
80
0
0
0
86
86
86
255
255
255
255
255
255
255
255
255
255
255
255
255
255
255
255
255
255
255
254
254
246
191
198
216
0
20
217
1
25
217
1
25
217
1
25
217
1
25
217
1
25
217
1
25
217
1
25
217
1
25
217
1
25
217
1
25
217
1
25
217
1
25
217
1
25
217
1
25
217
0
24
217
0
24
217
1
25
217
1
25
217
1
25
217
1
25
217
1
25
217
1
25
216
0
21
223
39
59
252
236
238
255
255
255
255
255
255
214
214
214
26
26
26
0
0
0
66
66
66
255
255
255
255
255
255
255
255
255
255
255
255
255
255
255
255
255
255
248
248
248
220
220
220
214
214
214
234
234
234
211
211
211
54
54
54
0
0
0
79
79
79
255
255
255
255
255
255
255
255
255
255
255
255
255
255
255
255
255
255
255
255
255
255
255
255
255
255
255
165
165
165
8
8
8
0
0
0
120
120
120
255
255
255
255
255
255
255
255
255
255
255
255
255
255
255
255
255
255
255
255
255
255
255
255
255
255
255
226
226
226
76
76
76
0
0
0
83
83
83
255
255
255
255
255
255
255
255
255
255
255
255
255
255
255
255
255
255
255
254
254
247
202
209
221
25
47
222
33
54
222
37
58
223
42
62
224
47
66
225
52
71
226
58
76
226
64
82
227
70
87
228
76
93
229
82
98
230
88
104
231
94
109
232
100
114
233
106
120
234
115
128
233
103
118
216
0
20
217
1
25
217
1
25
217
1
25
217
1
25
217
1
25
216
0
22
222
34
55
250
217
221
255
255
255
255
255
255
210
210
210
13
13
13
0
0
0
84
84
84
255
255
255
255
255
255
255
255
255
255
255
255
255
255
255
255
255
255
255
255
255
255
255
255
255
255
255
255
255
255
208
208
208
54
54
54
0
0
0
40
40
40
130
130
130
132
132
132
130
130
130
130
130
130
130
130
130
128
128
128
148
148
148
216
216
216
255
255
255
235
235
235
108
108
108
0
0
0
0
0
0
19
19
19
80
80
80
114
114
114
138
138
138
162
162
162
191
191
191
238
238
238
255
255
255
255
255
255
226
226
226
76
76
76
0
0
0
83
83
83
255
255
255
255
255
255
255
255
255
255
255
255
255
255
255
255
255
255
255
255
255
255
255
255
255
255
255
255
255
255
255
255
255
255
255
255
255
255
255
255
255
255
255
255
255
255
255
255
255
255
255
255
255
255
255
255
255
255
255
255
255
255
255
255
255
255
255
255
255
255
255
255
251
228
231
220
20
43
217
0
23
217
1
25
217
1
25
217
1
25
217
1
25
217
0
22
221
30
51
247
199
204
255
255
255
255
255
255
210
210
210
12
12
12
0
0
0
85
85
85
255
255
255
255
255
255
255
255
255
255
255
255
255
255
255
255
255
255
255
255
255
255
255
255
255
255
255
255
255
255
208
208
208
54
54
54
0
0
0
7
7
7
22
22
22
23
23
23
22
22
22
22
22
22
22
22
22
17
17
17
55
55
55
182
182
182
255
255
255
255
255
255
255
255
255
221
221
221
112
112
112
42
42
42
24
24
24
21
21
21
16
16
16
5
5
5
0
0
0
0
0
0
109
109
109
245
245
245
229
229
229
76
76
76
0
0
0
83
83
83
249
250
250
252
252
252
255
255
255
255
255
255
255
255
255
255
255
255
255
255
255
255
255
255
255
255
255
255
255
255
255
255
255
255
255
255
255
255
255
255
255
255
255
255
255
255
255
255
255
255
255
255
255
255
255
255
255
255
255
255
255
255
255
255
255
255
255
255
255
255
255
255
252
234
236
227
62
80
216
0
20
217
1
25
217
1
25
217
1
25
217
1
25
217
0
22
221
26
48
244
180
188
255
255
255
255
255
255
212
212
212
18
18
18
0
0
0
75
75
75
255
255
255
255
255
255
255
255
255
255
255
255
255
255
255
255
255
255
255
255
255
255
255
255
255
255
255
255
255
255
208
208
208
54
54
54
0
0
0
77
77
77
252
252
252
254
254
254
253
253
253
253
253
253
253
253
253
252
252
252
253
253
253
254
254
254
255
255
255
255
255
255
255
255
255
255
255
255
255
255
255
255
255
255
254
254
254
252
252
252
251
251
251
253
253
253
136
136
136
7
7
7
0
0
0
124
124
124
224
224
224
78
78
78
0
0
0
83
83
83
180
181
183
176
177
179
176
177
179
177
178
180
179
180
182
182
183
185
214
214
216
255
255
255
255
255
255
255
255
255
255
255
255
255
255
255
255
255
255
255
255
255
255
255
255
255
255
255
255
255
255
255
255
255
255
255
255
255
255
255
255
255
255
255
255
255
255
255
255
255
255
255
253
240
242
232
102
117
216
0
18
217
1
25
217
1
25
217
1
25
217
1
25
217
0
23
220
22
44
241
161
170
255
255
255
255
255
255
221
221
221
52
52
52
0
0
0
50
50
50
242
242
242
255
255
255
255
255
255
255
255
255
255
255
255
255
255
255
203
203
203
47
47
47
47
47
47
135
135
135
222
222
222
54
54
54
0
0
0
78
78
78
254
254
254
255
255
255
255
255
255
255
255
255
255
255
255
255
255
255
255
255
255
255
255
255
255
255
255
255
255
255
255
255
255
255
255
255
255
255
255
255
255
255
255
255
255
255
255
255
255
255
255
255
255
255
214
214
214
68
68
68
0
0
0
94
94
94
200
200
200
80
80
80
0
0
0
83
83
83
181
182
184
178
179
181
178
179
181
178
179
181
178
179
181
179
180
182
209
210
211
255
255
255
255
255
255
255
255
255
255
255
255
255
255
255
255
255
255
255
255
255
255
255
255
255
255
255
255
255
255
255
255
255
255
255
255
255
255
255
255
255
255
255
255
255
255
255
255
255
255
255
254
246
247
239
143
154
215
0
15
217
1
25
217
1
25
217
1
25
217
1
25
217
0
23
219
17
40
238
143
154
255
255
255
255
255
255
251
251
251
165
165
165
0
0
0
0
0
0
60
60
60
190
190
190
237
237
237
247
247
247
225
225
225
147
147
147
28
28
28
0
0
0
51
51
51
220
220
220
214
214
214
54
54
54
0
0
0
70
70
70
228
228
228
231
231
231
229
229
229
229
229
229
229
229
229
229
229
229
229
229
229
230
230
230
240
240
240
191
191
191
74
74
74
80
80
80
177
177
177
222
222
222
243
243
243
248
248
248
237
237
237
201
201
201
91
91
91
0
0
0
0
0
0
148
148
148
232
232
232
76
76
76
0
0
0
83
83
83
184
185
187
178
179
181
178
179
181
178
179
181
178
179
181
179
180
182
211
212
213
255
255
255
255
255
255
255
255
255
255
255
255
255
255
255
255
255
255
255
255
255
255
255
255
255
255
255
255
255
255
255
255
255
255
255
255
255
255
255
255
255
255
255
255
255
255
255
255
255
255
255
255
253
253
244
184
190
215
0
13
217
1
25
217
1
25
217
1
25
217
1
25
217
0
23
219
14
36
236
126
139
255
255
255
255
255
255
255
255
255
255
255
255
205
205
205
49
49
49
7
7
7
0
0
0
0
0
0
0
0
0
0
0
0
0
0
0
16
16
16
98
98
98
240
240
240
255
255
255
208
208
208
51
51
51
0
0
0
0
0
0
0
0
0
0
0
0
0
0
0
0
0
0
0
0
0
0
0
0
0
0
0
0
0
0
122
122
122
194
194
194
53
53
53
10
10
10
0
0
0
0
0
0
0
0
0
0
0
0
0
0
0
0
0
0
4
4
4
40
40
40
171
171
171
255
255
255
226
226
226
73
73
73
0
0
0
80
80
80
189
190
191
178
179
181
178
179
181
178
179
181
178
179
181
179
180
182
214
214
215
255
255
255
255
255
255
255
255
255
255
255
255
255
255
255
255
255
255
255
255
255
255
255
255
255
255
255
255
255
255
255
255
255
255
255
255
255
255
255
255
255
255
255
255
255
255
255
255
255
255
255
255
255
255
250
221
224
216
0
15
217
1
25
217
1
25
217
1
25
217
1
25
217
0
24
218
11
34
234
113
127
255
255
255
255
255
255
255
255
255
255
255
255
255
255
255
255
255
255
252
252
252
234
234
234
191
191
191
180
180
180
204
204
204
244
244
244
254
254
254
255
255
255
255
255
255
255
255
255
248
248
248
224
224
224
215
215
215
216
216
216
216
216
216
216
216
216
216
216
216
216
216
216
216
216
216
216
216
216
216
216
216
216
216
216
235
235
235
255
255
255
254
254
254
254
254
254
244
244
244
213
213
213
184
184
184
179
179
179
196
196
196
233
233
233
254
254
254
254
254
254
255
255
255
255
255
255
251
251
251
228
228
228
213
213
213
229
229
229
189
190
192
178
179
181
178
179
181
178
179
181
178
179
181
178
179
181
199
200
201
255
255
255
255
255
255
255
255
255
255
255
255
255
255
255
255
255
255
255
255
255
255
255
255
255
255
255
255
255
255
255
255
255
255
255
255
255
255
255
255
255
255
255
255
255
255
255
255
255
255
255
255
255
255
251
228
231
222
30
51
217
0
22
217
1
25
217
1
25
217
1
25
217
0
24
218
9
32
233
104
119
255
255
255
255
255
255
255
255
255
255
255
255
255
255
255
255
255
255
255
255
255
255
255
255
255
255
255
255
255
255
255
255
255
255
255
255
255
255
255
255
255
255
255
255
255
255
255
255
255
255
255
255
255
255
255
255
255
255
255
255
255
255
255
255
255
255
255
255
255
255
255
255
255
255
255
255
255
255
255
255
255
255
255
255
255
255
255
255
255
255
255
255
255
255
255
255
254
254
254
255
255
255
255
255
255
255
255
255
255
255
255
255
255
255
255
255
255
255
255
255
255
255
255
255
255
255
255
255
255
255
255
255
255
255
255
255
255
255
205
205
207
178
179
181
178
179
181
178
179
181
178
179
181
178
179
181
199
200
201
255
255
255
255
255
255
255
255
255
255
255
255
255
255
255
255
255
255
255
255
255
255
255
255
255
255
255
255
255
255
255
255
255
255
255
255
255
255
255
255
255
255
255
255
255
255
255
255
255
255
255
255
255
255
252
235
237
228
68
86
215
0
15
216
0
18
215
0
15
215
0
13
216
0
19
221
27
48
236
128
140
255
255
255
255
255
255
255
255
255
255
255
255
255
255
255
255
255
255
255
255
255
255
255
255
255
255
255
255
255
255
255
255
255
255
255
255
255
255
255
251
251
251
181
181
181
86
86
86
97
97
97
104
104
104
91
91
91
96
96
96
186
186
186
255
255
255
253
253
253
157
157
157
79
79
79
205
205
205
255
255
255
255
255
255
254
254
254
143
143
143
87
87
87
216
216
216
255
255
255
196
196
196
152
152
152
226
226
226
255
255
255
226
226
226
128
128
128
83
83
83
100
100
100
105
105
105
102
102
102
82
82
82
135
135
135
233
233
233
198
198
200
178
179
181
178
179
181
178
179
181
178
179
181
178
179
181
200
200
202
255
255
255
255
255
255
255
255
255
255
255
255
255
255
255
255
255
255
255
255
255
255
255
255
255
255
255
255
255
255
255
255
255
255
255
255
255
255
255
255
255
255
255
255
255
255
255
255
255
255
255
255
255
255
255
250
251
245
187
194
234
116
129
242
163
172
249
211
215
254
252
252
255
255
255
255
255
255
255
255
255
255
254
254
255
255
255
255
255
255
255
255
255
255
255
255
255
255
255
255
255
255
255
255
255
255
255
255
255
255
255
255
255
255
255
255
255
254
254
254
154
154
154
59
59
59
248
248
248
255
255
255
255
255
255
255
255
255
210
210
210
75
75
75
146
146
146
255
255
255
255
255
255
160
160
160
58
58
58
194
194
194
255
255
255
129
129
129
73
73
73
223
223
223
255
255
255
255
255
255
188
188
188
136
136
136
222
222
222
255
255
255
236
236
236
226
226
226
253
253
253
255
255
255
255
255
255
255
255
255
255
255
255
86
86
86
110
110
110
211
211
212
178
179
181
178
179
181
178
179
181
178
179
181
178
179
181
198
198
200
255
255
255
255
255
255
255
255
255
255
255
255
255
255
255
255
255
255
255
255
255
255
255
255
255
255
255
254
254
254
248
248
248
244
245
245
242
243
243
233
234
234
233
233
234
229
230
230
225
225
226
220
221
222
215
216
217
221
222
223
255
255
255
255
255
255
255
255
255
255
255
255
255
255
255
255
255
255
255
255
255
255
255
255
255
255
255
255
255
255
255
255
255
255
255
255
255
255
255
255
255
255
255
255
255
255
255
255
255
255
255
255
255
255
255
255
255
214
214
214
96
96
96
151
151
151
255
255
255
254
254
254
254
254
254
255
255
255
255
255
255
144
144
144
65
65
65
255
255
255
255
255
255
255
255
255
183
183
183
66
66
66
41
41
41
96
96
96
248
248
248
255
255
255
255
255
255
255
255
255
158
158
158
85
85
85
208
208
208
255
255
255
255
255
255
255
255
255
254
254
254
254
254
254
254
254
254
254
254
254
255
255
255
119
119
119
105
105
105
214
215
216
178
179
181
178
179
181
178
179
181
178
179
181
178
179
181
199
200
201
243
243
243
182
183
185
183
184
186
181
182
184
180
181
183
180
181
183
179
180
183
179
180
182
178
179
180
177
178
180
177
178
180
177
178
180
177
178
180
177
178
180
177
178
180
177
178
180
177
178
180
177
178
180
176
177
179
188
188
190
255
255
255
255
255
255
255
255
255
255
255
255
255
255
255
255
255
255
255
255
255
255
255
255
255
255
255
255
255
255
255
255
255
255
255
255
255
255
255
255
255
255
255
255
255
255
255
255
255
255
255
255
255
255
255
255
255
209
209
209
78
78
78
123
123
123
203
203
203
195
195
195
195
195
195
195
195
195
195
195
195
193
193
193
212
212
212
253
253
253
255
255
255
255
255
255
230
230
230
89
89
89
3
3
3
149
149
149
255
255
255
255
255
255
255
255
255
255
255
255
158
158
158
85
85
85
208
208
208
255
255
255
186
186
186
73
73
73
115
115
115
187
187
187
196
196
196
195
195
195
207
207
207
88
88
88
104
104
104
213
214
214
173
174
176
174
175
177
181
182
184
182
183
185
184
185
187
197
197
199
239
239
239
176
177
179
178
179
181
178
179
181
178
179
181
178
179
181
178
179
181
178
179
181
178
179
181
178
179
181
178
179
181
178
179
181
178
179
181
178
179
181
178
179
181
178
179
181
178
179
181
178
179
181
177
178
180
187
188
190
252
252
252
255
255
255
255
255
255
255
255
255
255
255
255
255
255
255
255
255
255
255
255
255
255
255
255
255
255
255
255
255
255
255
255
255
255
255
255
255
255
255
255
255
255
255
255
255
255
255
255
255
255
255
255
255
255
232
232
232
111
111
111
102
102
102
255
255
255
255
255
255
255
255
255
255
255
255
255
255
255
255
255
255
255
255
255
254
254
254
255
255
255
215
215
215
80
80
80
126
126
126
217
217
217
84
84
84
124
124
124
255
255
255
255
255
255
255
255
255
158
158
158
85
85
85
211
211
211
245
245
245
82
82
82
127
127
127
255
255
255
255
255
255
255
255
255
255
255
255
255
255
255
115
115
115
99
99
99
255
255
255
255
255
255
255
255
255
255
255
255
255
255
255
255
255
255
255
255
255
235
235
235
175
176
178
176
177
179
176
177
179
176
177
179
176
177
179
176
177
179
176
177
179
176
177
179
176
177
179
176
177
179
176
177
179
176
177
179
177
178
180
177
178
180
177
178
180
178
179
180
178
179
181
179
180
182
190
191
192
251
251
251
255
255
255
255
255
255
255
255
255
255
255
255
255
255
255
255
255
255
255
255
255
255
255
255
255
255
255
255
255
255
255
255
255
255
255
255
255
255
255
255
255
255
255
255
255
255
255
255
255
255
255
255
255
255
255
255
255
213
213
213
72
72
72
97
97
97
204
204
204
215
215
215
212
212
212
167
167
167
97
97
97
163
163
163
255
255
255
190
190
190
63
63
63
137
137
137
255
255
255
255
255
255
225
225
225
86
86
86
100
100
100
247
247
247
255
255
255
156
156
156
82
82
82
208
208
208
255
255
255
138
138
138
70
70
70
174
174
174
217
217
217
217
217
217
213
213
213
152
152
152
27
27
27
97
97
97
255
255
255
255
255
255
255
255
255
255
255
255
255
255
255
255
255
255
255
255
255
255
255
255
255
255
255
251
251
251
247
247
247
244
245
245
242
242
243
242
241
241
241
241
241
241
241
241
241
241
242
243
243
244
246
246
246
253
253
254
255
255
255
255
255
255
255
255
255
255
255
255
255
255
255
255
255
255
255
255
255
255
255
255
255
255
255
255
255
255
255
255
255
255
255
255
255
255
255
255
255
255
255
255
255
255
255
255
255
255
255
255
255
255
255
255
255
255
255
255
255
255
255
255
255
255
255
255
255
255
255
255
255
255
255
255
255
255
255
255
255
255
255
255
255
255
255
242
242
242
183
183
183
149
149
149
163
163
163
215
215
215
255
255
255
255
255
255
241
241
241
202
202
202
217
217
217
255
255
255
255
255
255
255
255
255
255
255
255
243
243
243
202
202
202
216
216
216
255
255
255
228
228
228
208
208
208
242
242
242
255
255
255
255
255
255
249
249
249
200
200
200
154
154
154
148
148
148
179
179
179
241
241
241
222
222
222
214
214
214
255
255
255
255
255
255
255
255
255
255
255
255
255
255
255
255
255
255
255
255
255
255
255
255
255
255
255
255
255
255
255
255
255
255
255
255
255
255
255
255
255
255
255
255
255
255
255
255
255
255
255
255
255
255
255
255
255
255
255
255
255
255
255
255
255
255
255
255
255
255
255
255
255
255
255
255
255
255
255
255
255
255
255
255
255
255
255
255
255
255
255
255
255
255
255
255
255
255
255
255
255
255
255
255
255
255
255
255
255
255
255
255
255
255
255
255
255
255
255
255
255
255
255
255
255
255
255
255
255
255
255
255
255
255
255
255
255
255
255
255
255
255
255
255
255
255
255
255
255
255
255
255
255
255
255
255
255
255
255
255
255
255
255
255
255
255
255
255
255
255
255
255
255
255
255
255
255
255
255
255
255
255
255
255
255
255
255
255
255
255
255
255
255
255
255
255
255
255
255
255
255
255
255
255
255
255
255
255
255
255
255
255
255
255
255
255
255
255
255
255
255
255
255
255
255
255
255
255
255
255
255
255
255
255
255
255
255
255
255
255
255
255
255
255
255
255
255
255
255
255
255
255
255
255
255
255
255
255
255
255
255
255
255
255
255
255
255
255
255
255
255
255
255
255
255
255
255
255
255
255
255
255
255
255
255
255
255
255
255
255
255
255
255
255
255
255
255
255
255
255
255
255
255
255
255
255
255
255
255
255
255
255
255
255
255
255
255
255
255
255
255
255
255
255
255
255
255
255
255
255
255
255
255
255
255
255
255
255
255
255
255
255
255
255
255
255
255
255
255
255
255
255
255
255
255
255
255
255
255
255
255
255
255
255
255
255
255
255
255
255
255
255
255
255
255
255
255
255
255
255
255
255
255
255
255
255
255
255
255
255
255
255
255
255
255
255
255
255
255
255
255
255
255
255
255
255
255
255
255
255
255
255
255
255
255
255
255
255
255
255
255
255
255
255
255
255
255
255
255
255
255
255
255
255
255
255
255
255
255
255
255
255
255
255
255
255
255
255
255
255
255
255
255
255
255
255
255
255
255
255
255
255
255
255
255
255
255
255
255
255
255
255
255
255
255
255
255
255
255
255
226
226
226
161
161
161
241
241
241
229
229
229
224
224
224
250
250
250
222
222
222
225
225
225
251
251
251
242
242
242
255
255
255
235
235
235
226
226
226
232
232
232
254
254
254
229
229
229
226
226
226
235
235
235
233
233
233
240
240
240
244
244
244
239
239
239
255
255
255
236
236
236
237
237
237
226
226
226
238
238
238
224
224
224
188
188
188
211
211
211
234
234
234
255
255
255
236
236
236
243
243
243
240
240
240
221
221
221
228
228
228
239
239
239
254
254
254
246
246
246
237
237
237
219
219
219
231
231
231
244
244
244
223
223
223
233
233
233
254
254
254
246
246
246
239
239
239
238
238
238
252
252
252
235
235
235
230
230
230
228
228
228
234
234
234
230
230
230
232
232
232
240
240
240
225
225
225
230
230
230
233
233
233
241
241
241
255
255
255
244
244
244
242
242
242
245
245
245
238
238
238
240
240
240
220
220
220
226
226
226
243
243
243
238
238
238
221
221
221
238
238
238
246
246
246
248
248
248
247
247
247
230
230
230
226
226
226
228
228
228
150
150
150
250
250
250
238
238
238
165
165
165
255
255
255
175
175
175
231
231
231
209
209
209
164
164
164
185
185
185
253
253
253
152
152
152
254
254
254
254
254
254
248
248
248
155
155
155
254
254
254
152
152
152
250
250
250
164
164
164
186
186
186
106
106
106
229
229
229
145
145
145
161
161
161
255
255
255
234
234
234
158
158
158
255
255
255
231
231
231
114
114
114
168
168
168
154
154
154
185
185
185
192
192
192
197
197
197
236
236
236
176
176
176
245
245
245
203
203
203
175
175
175
186
186
186
215
215
215
127
127
127
191
191
191
255
255
255
240
240
240
203
203
203
155
155
155
114
114
114
199
199
199
145
145
145
187
187
187
255
255
255
212
212
212
186
186
186
225
225
225
136
136
136
195
195
195
217
217
217
128
128
128
145
145
145
175
175
175
150
150
150
164
164
164
160
160
160
174
174
174
247
247
247
206
206
206
185
185
185
177
177
177
178
178
178
229
229
229
194
194
194
147
147
147
223
223
223
203
203
203
137
137
137
206
206
206
255
255
255
115
115
115
168
168
168
206
206
206
127
127
127
170
170
170
198
198
198
145
145
145
140
140
140
195
195
195
123
123
123
178
178
178
130
130
130
170
170
170
188
188
188
250
250
250
128
128
128
174
174
174
143
143
143
252
252
252
160
160
160
195
195
195
196
196
196
186
186
186
118
118
118
152
152
152
168
168
168
144
144
144
132
132
132
176
176
176
190
190
190
162
162
162
216
216
216
80
80
80
188
188
188
179
179
179
123
123
123
178
178
178
187
187
187
145
145
145
157
157
157
207
207
207
159
159
159
186
186
186
172
172
172
150
150
150
158
158
158
217
217
217
201
201
201
178
178
178
176
176
176
182
182
182
101
101
101
184
184
184
255
255
255
207
207
207
140
140
140
173
173
173
151
151
151
182
182
182
203
203
203
134
134
134
174
174
174
221
221
221
184
184
184
126
126
126
165
165
165
172
172
172
177
177
177
208
208
208
179
179
179
195
195
195
165
165
165
108
108
108
139
139
139
151
151
151
147
147
147
181
181
181
141
141
141
141
141
141
180
180
180
