P3
# CREATOR: GIMP PNM Filter Version 1.1
50 24
255
255
255
255
255
255
255
255
255
255
255
255
255
255
255
255
255
255
255
255
255
255
255
255
255
255
255
255
255
255
255
255
255
255
255
255
255
255
255
255
255
255
255
255
255
255
255
255
255
255
255
255
255
255
255
255
255
255
255
255
255
255
255
255
254
254
254
251
251
251
249
249
249
248
248
248
248
248
248
249
249
249
250
250
250
253
253
253
255
255
255
255
255
255
255
255
255
255
255
255
255
255
255
255
255
255
255
255
255
255
255
255
255
255
255
255
255
255
255
255
255
255
255
255
255
255
255
255
255
255
255
255
255
255
255
255
255
255
255
255
255
255
255
255
255
255
255
255
255
255
255
255
255
255
255
255
255
255
255
255
255
255
255
255
255
255
255
255
255
255
255
255
255
255
255
255
255
255
255
255
255
255
255
255
255
255
255
255
255
255
255
255
255
255
255
255
255
255
255
255
255
255
254
254
254
255
255
255
240
240
240
218
218
218
189
189
189
155
155
155
132
132
133
118
118
119
119
119
120
129
129
129
152
152
152
185
185
185
217
217
217
226
226
226
250
250
250
255
255
255
255
255
255
255
255
255
255
255
255
255
255
255
255
255
255
255
255
255
255
255
255
255
255
255
255
255
255
255
255
255
255
255
255
255
255
255
255
255
255
255
255
255
255
255
255
255
255
255
255
255
255
255
255
255
255
255
255
255
255
255
255
255
255
255
255
255
255
255
255
255
255
255
255
255
255
255
255
255
255
255
255
255
255
255
255
255
255
255
255
255
255
255
255
255
255
255
255
255
255
255
255
255
255
255
255
223
223
223
125
125
125
40
40
39
27
27
27
21
21
21
16
16
16
13
13
13
13
13
13
14
14
14
31
31
33
52
52
53
39
39
41
68
68
68
166
166
166
235
235
235
255
255
255
255
255
255
255
255
255
255
255
255
255
255
255
255
255
255
255
255
255
255
255
255
255
255
255
255
255
255
255
255
255
255
255
255
255
255
255
255
255
255
255
255
255
255
255
255
255
255
255
255
255
255
255
255
255
255
255
255
255
255
255
255
255
255
255
255
255
255
255
255
255
255
255
255
255
255
255
255
255
255
255
255
255
255
255
255
255
255
255
255
255
255
255
255
255
255
255
255
255
255
211
211
211
103
103
103
6
6
6
0
0
2
2
2
4
1
1
2
1
1
3
2
2
4
0
0
2
0
0
1
15
15
17
26
26
27
8
8
9
5
5
6
9
9
9
98
98
98
228
228
228
255
255
255
255
255
255
255
255
255
255
255
255
255
255
255
255
255
255
255
255
255
255
255
255
255
255
255
255
255
255
255
255
255
255
255
255
255
255
255
255
255
255
255
255
255
255
255
255
255
255
255
255
255
255
255
255
255
255
255
255
255
255
255
255
255
255
255
255
255
255
255
255
255
255
255
255
255
255
255
255
255
255
255
255
255
255
255
255
255
255
255
255
255
255
255
255
255
255
255
158
157
157
30
30
30
19
19
20
45
45
46
25
25
26
7
7
8
0
0
1
0
1
2
24
24
26
65
65
66
82
82
82
59
59
59
13
13
12
3
3
5
0
0
0
3
3
5
90
90
92
255
255
255
255
255
255
255
255
255
255
255
255
255
255
255
255
255
255
255
255
255
255
255
255
255
255
255
255
255
255
255
255
255
255
255
255
255
255
255
255
255
255
255
255
255
255
255
255
255
255
255
255
255
255
255
255
255
255
255
255
255
255
255
255
255
255
255
255
255
255
255
255
255
255
255
255
255
255
255
255
255
255
255
255
255
255
255
255
255
255
255
255
255
255
255
255
255
255
255
146
146
145
69
71
71
171
172
175
89
89
93
189
187
183
122
119
106
32
27
1
55
52
39
226
223
212
115
115
114
82
83
85
143
145
147
167
168
172
11
12
12
0
0
0
0
0
0
64
64
65
255
255
255
255
255
255
255
255
255
255
255
255
255
255
255
255
255
255
255
255
255
255
255
255
255
255
255
255
255
255
255
255
255
255
255
255
255
255
255
255
255
255
255
255
255
255
255
255
255
255
255
255
255
255
255
255
255
255
255
255
255
255
255
255
255
255
255
255
255
255
255
255
255
255
255
255
255
255
255
255
255
255
255
255
255
255
255
255
255
255
255
255
255
255
254
253
255
255
255
162
166
165
92
96
91
162
156
144
83
65
31
166
139
46
216
183
40
212
187
29
223
202
63
240
218
97
121
112
40
82
74
30
133
123
91
166
162
147
11
11
10
0
0
0
0
0
0
60
60
60
254
254
254
255
255
255
255
255
255
255
255
255
255
255
255
255
255
255
255
255
255
255
255
255
255
255
255
255
255
255
255
255
255
255
255
255
255
255
255
255
255
255
255
255
255
255
255
255
255
255
255
255
255
255
255
255
255
255
255
255
255
255
255
255
255
255
255
255
255
255
255
255
255
255
255
255
255
255
255
255
255
255
255
255
255
255
255
255
255
255
255
255
255
255
255
249
255
255
255
180
178
188
103
92
75
142
113
14
208
155
5
232
176
10
238
194
14
241
211
38
245
220
81
240
212
50
237
207
34
225
178
19
205
151
16
163
129
25
10
8
2
5
6
12
0
0
0
46
46
46
197
197
197
252
252
252
255
255
255
255
255
255
255
255
255
255
255
255
255
255
255
255
255
255
255
255
255
255
255
255
255
255
255
255
255
255
255
255
255
255
255
255
255
255
255
255
255
255
255
255
255
255
255
255
255
255
255
255
255
255
255
255
255
255
255
255
255
255
255
255
255
255
255
255
255
255
255
255
255
255
255
255
255
255
255
255
255
255
255
255
255
255
255
255
255
255
253
253
253
190
191
191
93
95
95
68
66
61
153
132
87
175
141
47
190
148
20
199
153
18
192
148
22
207
152
20
199
158
48
192
170
101
197
190
163
181
181
182
19
20
20
34
35
35
90
90
90
76
76
76
11
11
11
190
190
190
249
249
249
255
255
255
255
255
255
255
255
255
255
255
255
255
255
255
255
255
255
255
255
255
255
255
255
255
255
255
255
255
255
255
255
255
255
255
255
255
255
255
255
255
255
255
255
255
255
255
255
255
255
255
255
255
255
255
255
255
255
255
255
255
255
255
255
255
255
255
255
255
255
255
255
255
255
255
255
255
255
255
255
255
255
255
255
224
224
225
175
175
175
74
74
74
71
71
71
205
206
209
213
213
214
202
200
190
197
192
175
198
192
174
201
195
181
212
206
196
228
228
216
239
243
234
246
250
248
246
248
250
222
222
222
71
71
71
5
5
5
11
11
11
0
0
0
14
14
14
144
144
144
221
221
222
243
243
244
255
255
255
255
255
255
255
255
255
255
255
255
255
255
255
255
255
255
255
255
255
255
255
255
255
255
255
255
255
255
255
255
255
255
255
255
255
255
255
255
255
255
255
255
255
255
255
255
255
255
255
255
255
255
255
255
255
255
255
255
255
255
255
255
255
255
255
255
255
251
251
251
238
238
238
203
203
203
49
49
52
14
14
15
126
126
126
226
226
226
253
254
250
252
253
253
248
249
250
246
247
249
246
247
251
247
248
252
248
250
254
250
253
254
252
253
252
251
251
249
249
248
248
250
251
249
199
199
197
76
76
75
0
0
0
0
0
1
2
2
4
17
17
17
52
52
52
137
137
139
231
231
232
254
254
254
255
255
255
255
255
255
255
255
255
255
255
255
255
255
255
255
255
255
255
255
255
255
255
255
255
255
255
255
255
255
255
255
255
255
255
255
255
255
255
255
255
255
255
255
255
255
255
255
255
255
255
255
255
255
255
255
255
255
255
255
255
255
255
208
208
208
100
100
100
11
11
11
0
0
0
94
94
97
196
196
196
246
246
244
251
252
248
253
253
251
245
245
243
244
244
242
248
248
246
253
253
251
252
252
250
248
248
246
242
242
240
231
231
229
217
217
214
211
212
207
239
239
237
161
161
161
50
50
52
12
12
15
16
16
17
7
7
9
2
2
4
6
6
6
18
18
18
189
189
189
246
246
246
255
255
255
255
255
255
255
255
255
255
255
255
255
255
255
255
255
255
255
255
255
255
255
255
255
255
255
255
255
255
255
255
255
255
255
255
255
255
255
255
255
255
255
255
255
255
255
255
255
255
255
255
255
255
255
255
255
239
239
239
128
128
128
27
27
27
37
37
37
112
112
110
223
223
221
255
255
255
252
252
250
253
253
251
254
254
252
254
254
252
254
254
252
253
253
251
253
253
251
253
253
251
253
253
251
253
253
251
252
252
250
253
253
251
253
253
251
254
254
252
249
249
247
222
222
220
148
148
146
10
10
11
5
5
7
19
19
22
17
17
19
1
1
2
0
0
0
157
157
157
249
249
249
255
255
255
255
255
255
255
255
255
255
255
255
255
255
255
255
255
255
255
255
255
255
255
255
255
255
255
255
255
255
255
255
255
255
255
255
255
255
255
255
255
255
255
255
255
255
255
255
255
255
255
229
229
229
116
116
115
37
37
36
43
44
43
118
118
118
236
236
236
255
255
255
254
254
253
253
253
251
253
253
251
246
246
244
252
252
250
254
254
252
253
253
251
253
253
251
253
253
251
253
253
251
253
253
251
254
254
252
254
254
252
255
255
253
254
254
252
255
255
253
255
255
255
239
238
239
79
79
81
13
13
16
5
5
7
13
13
14
5
5
6
1
1
1
17
17
17
146
146
146
254
254
254
254
254
254
255
255
255
255
255
255
255
255
255
255
255
255
255
255
255
255
255
255
255
255
255
255
255
255
255
255
255
255
255
255
255
255
255
255
255
255
255
255
255
252
253
253
222
223
226
63
64
74
55
55
64
21
21
25
65
66
66
237
237
237
255
255
255
254
254
252
253
253
250
253
253
251
252
252
251
243
243
241
251
251
249
254
254
252
253
253
251
253
253
251
253
253
251
253
253
251
253
253
251
253
253
251
253
253
251
253
253
251
253
253
251
253
253
252
255
255
255
250
251
252
148
148
150
32
32
32
0
0
0
9
9
8
4
4
4
2
2
2
0
0
0
83
83
83
215
215
215
255
255
255
255
255
255
255
255
255
255
255
255
255
255
255
255
255
255
255
255
255
255
255
255
255
255
255
255
255
255
255
255
255
255
255
255
255
255
255
255
255
255
214
214
213
72
72
70
3
2
6
66
63
72
71
68
77
113
112
115
255
255
255
255
255
253
254
254
252
253
253
251
253
253
251
252
252
250
243
243
241
251
251
249
254
254
252
253
253
251
253
253
251
253
253
251
253
253
251
253
253
251
253
253
251
253
253
251
253
253
251
253
253
251
252
253
251
255
255
254
247
247
244
149
150
149
32
32
32
0
0
0
5
4
5
2
2
2
1
1
1
0
0
0
63
63
64
181
180
180
255
255
255
255
255
255
255
255
255
255
255
255
255
255
255
255
255
255
251
255
253
254
252
255
255
253
252
254
255
250
253
252
250
253
250
246
248
250
244
252
250
243
237
230
212
190
162
78
215
171
15
219
180
21
132
103
20
96
81
74
209
211
210
240
240
241
246
246
247
253
253
254
253
255
251
251
255
244
242
242
239
251
251
249
255
255
253
253
253
251
253
253
251
253
253
251
253
253
251
253
253
251
253
253
251
253
253
251
254
254
247
249
255
255
243
243
228
242
229
179
231
212
134
142
129
74
31
29
24
0
0
6
5
3
8
8
7
13
35
35
38
25
27
17
137
137
134
255
255
250
255
254
248
255
255
254
255
255
255
255
255
255
255
255
255
255
255
255
254
254
255
254
255
254
254
255
255
245
243
230
225
204
152
226
186
94
225
187
81
221
184
69
221
178
41
231
180
12
247
195
15
254
191
15
244
186
13
204
159
16
125
96
31
57
48
42
101
102
104
183
186
186
222
223
223
238
235
237
252
251
250
253
253
251
253
254
251
253
253
251
253
253
251
253
253
251
253
253
251
253
253
251
253
253
251
253
253
250
252
255
246
243
253
254
218
209
176
213
174
73
236
182
29
185
134
26
57
41
18
26
19
8
29
21
4
32
25
10
72
54
24
177
140
32
222
178
39
231
203
112
252
249
241
255
255
255
255
255
255
255
255
255
255
255
254
255
255
255
253
255
253
254
254
254
255
255
255
243
231
197
212
158
32
240
184
12
244
188
14
243
185
13
243
186
9
246
190
10
248
191
15
248
191
16
249
194
13
248
192
10
227
170
9
161
121
14
56
43
10
17
20
23
62
65
67
155
150
152
250
250
250
255
255
255
253
253
251
253
253
251
253
253
251
253
253
251
254
254
252
255
255
254
255
255
254
255
255
254
255
255
250
215
220
228
189
174
143
204
158
54
244
181
24
231
173
28
201
152
20
187
139
18
191
142
22
206
159
28
225
179
36
249
194
29
244
192
22
234
189
49
242
210
127
254
244
216
248
244
230
249
249
242
255
255
254
255
253
254
254
254
251
254
253
254
255
255
255
238
229
202
203
159
38
242
186
12
247
190
12
247
190
15
247
190
15
247
190
15
247
190
15
247
190
15
247
190
15
246
189
15
248
191
14
250
191
7
209
166
14
136
108
39
104
93
89
166
168
166
249
249
249
255
255
255
254
254
252
254
254
252
254
254
252
254
254
252
253
253
251
252
252
250
252
252
250
251
251
251
237
237
236
98
99
108
86
65
27
173
126
12
244
187
26
247
193
33
247
193
32
248
193
32
248
193
33
249
195
34
244
198
35
243
194
38
246
192
40
247
193
33
245
190
22
241
186
30
198
163
56
220
208
170
255
255
255
254
255
249
254
255
252
255
255
255
243
240
231
224
198
133
216
155
5
243
186
13
246
190
15
246
189
15
246
187
12
245
187
11
245
188
13
245
190
14
246
190
13
247
191
13
247
192
15
248
189
17
249
194
11
229
174
8
189
144
35
157
137
103
180
178
176
221
221
222
240
240
240
240
240
241
240
240
240
239
239
239
211
211
210
157
157
156
94
94
93
42
42
43
5
6
8
0
0
0
96
66
12
210
158
26
243
187
25
247
193
36
247
194
34
248
194
33
249
191
33
247
186
32
238
179
36
227
169
24
209
154
14
187
135
12
172
128
25
190
161
90
221
206
167
246
242
230
255
255
255
255
255
254
251
254
250
254
255
255
246
245
234
228
215
176
208
181
106
211
172
72
200
157
44
200
152
36
209
158
33
218
166
29
225
172
25
228
175
22
234
179
18
238
182
16
238
180
10
233
177
10
231
174
6
222
162
0
190
136
5
126
96
24
47
46
43
64
65
68
83
83
83
86
86
86
81
81
81
74
74
74
61
61
61
46
46
46
33
33
32
33
33
33
34
34
34
34
33
33
99
70
19
180
127
11
206
146
13
214
155
16
215
155
13
211
151
11
198
144
17
176
129
23
158
122
47
190
165
117
219
204
178
235
228
214
243
239
229
245
243
238
251
251
248
254
255
254
255
255
255
255
255
254
254
255
254
255
255
255
254
254
252
251
249
245
246
244
236
246
240
227
243
236
221
243
235
216
241
234
212
232
224
198
225
213
177
218
204
162
209
189
133
197
170
93
183
150
53
174
128
28
158
116
25
152
115
37
168
141
89
205
194
177
212
212
211
214
214
215
217
217
217
217
217
217
216
216
216
215
215
215
214
214
214
214
214
214
215
215
215
215
215
215
213
213
214
210
208
209
179
165
148
139
113
70
115
85
28
119
85
27
117
84
25
131
101
42
163
143
99
206
196
176
233
229
219
242
240
237
250
249
252
255
255
255
255
255
255
255
255
255
255
255
255
255
254
255
255
254
255
254
255
255
255
255
255
255
255
255
255
255
255
255
255
255
255
255
255
255
255
255
255
255
255
255
255
255
255
255
255
254
254
255
253
253
251
252
252
252
251
251
249
250
249
245
249
247
242
248
245
240
247
244
239
246
244
241
249
247
245
252
253
253
255
255
255
255
255
255
255
255
255
255
255
255
255
255
255
255
255
255
255
255
255
255
255
255
255
255
255
255
255
255
255
255
255
255
255
255
251
251
250
246
245
244
244
242
240
244
242
239
244
242
239
245
244
241
248
248
246
253
253
253
255
255
255
255
255
255
255
255
255
255
255
255
255
255
255
255
255
255
255
255
255
255
255
255
255
255
255
255
255
255
