P3
# CREATOR: GIMP PNM Filter Version 1.1
80 24
255
7
11
17
10
12
13
4
7
6
27
36
40
19
23
28
16
26
30
41
58
68
52
65
74
11
20
18
10
13
16
10
17
21
44
55
61
27
39
47
42
58
68
21
37
46
23
39
49
29
52
63
39
67
83
32
58
72
34
61
75
36
63
78
38
65
79
39
71
86
41
74
91
39
71
87
43
74
88
33
65
78
33
63
79
35
63
82
35
65
83
42
76
93
47
84
101
52
86
103
39
72
91
44
82
100
42
80
95
40
72
91
35
63
76
21
43
52
26
44
54
21
46
53
30
57
72
55
93
113
53
97
113
63
88
99
42
72
86
29
57
69
17
42
53
51
78
93
23
54
72
49
80
94
29
56
65
23
50
63
60
94
112
43
72
87
54
84
97
28
58
71
57
85
98
27
51
63
28
51
63
35
59
72
33
57
71
31
54
69
37
58
68
20
37
47
21
36
46
20
33
41
27
40
46
24
35
42
25
33
41
21
30
37
18
30
36
17
28
35
17
27
35
18
26
33
14
22
26
13
20
24
13
18
21
11
15
19
9
12
16
13
21
23
14
24
27
17
26
32
15
23
30
23
33
42
33
50
55
25
39
43
3
8
16
33
49
56
9
15
23
28
45
51
12
29
37
45
66
77
17
31
44
24
43
54
34
56
69
35
58
70
28
48
58
26
51
64
36
61
74
30
56
69
32
58
71
30
60
74
47
80
95
43
78
94
43
80
98
44
83
101
46
88
103
38
74
91
40
74
91
40
73
89
45
82
101
47
88
107
45
86
102
35
71
85
37
68
83
23
48
64
26
49
62
28
55
67
121
160
171
61
97
115
60
102
118
49
89
105
22
48
63
29
60
67
46
78
90
37
70
86
47
84
99
35
68
81
29
57
69
21
45
59
37
65
80
38
67
84
59
89
106
43
71
80
42
65
73
24
43
53
21
42
50
21
41
51
20
39
48
19
37
44
18
34
41
18
32
39
14
30
38
43
59
68
23
41
51
32
52
62
35
55
68
39
57
71
35
51
64
33
49
62
32
50
61
20
30
38
20
28
36
19
26
33
18
25
30
22
33
42
33
48
57
16
27
34
14
23
28
12
21
25
13
24
30
17
30
37
17
31
38
18
32
35
20
28
33
17
27
35
45
64
68
13
20
24
5
12
14
5
14
16
17
26
31
21
31
38
27
40
51
38
63
74
26
55
69
41
71
83
36
57
66
27
48
55
72
107
123
44
72
84
40
66
77
39
69
84
27
58
72
40
73
90
39
74
90
61
96
112
37
68
83
44
85
101
51
99
118
48
91
111
53
92
111
36
74
91
39
74
90
29
58
73
33
60
73
37
62
77
36
64
80
39
70
86
58
91
108
37
71
84
36
68
81
31
62
77
31
62
78
45
75
93
101
142
151
38
72
83
46
74
86
51
81
91
45
78
93
51
88
107
50
88
108
57
92
108
30
57
72
69
108
123
61
98
114
52
92
109
60
104
122
55
98
116
45
86
105
44
85
103
43
82
101
41
79
98
48
89
107
39
76
93
37
68
84
42
66
80
40
64
79
34
55
68
29
45
54
14
23
29
16
22
26
13
18
22
13
16
21
16
23
27
15
26
28
15
22
28
13
20
26
12
19
24
11
17
19
9
11
11
8
17
23
32
48
56
30
39
45
13
20
24
26
44
50
28
51
60
24
39
52
27
52
62
27
51
61
36
58
69
19
38
47
15
27
35
20
32
40
24
42
51
39
70
81
38
71
84
30
60
73
20
46
57
107
146
160
92
131
138
21
47
55
42
75
93
50
89
109
46
85
104
38
78
94
37
78
94
42
83
97
44
85
103
51
92
113
42
82
100
47
85
102
50
88
105
79
118
136
64
104
121
76
118
135
88
134
150
87
133
150
94
139
159
77
122
143
92
137
157
96
141
158
65
108
124
78
117
134
67
105
120
64
105
122
57
93
110
48
81
98
46
80
96
34
71
83
40
77
91
77
116
134
38
79
97
48
88
105
39
74
92
22
53
66
55
88
97
46
85
98
73
114
128
41
81
96
40
80
96
39
77
94
38
75
91
35
71
87
36
69
83
36
66
80
35
61
73
31
48
56
14
29
36
31
49
59
40
63
73
44
69
81
24
46
58
25
46
54
31
50
58
18
31
38
16
24
31
14
23
29
14
21
26
11
18
23
18
33
40
31
51
59
24
42
52
50
68
75
29
50
60
36
61
72
22
40
47
26
45
56
49
78
95
28
50
62
48
81
95
44
83
97
50
83
95
32
54
63
32
50
58
34
54
62
27
50
62
39
73
86
43
78
95
37
74
90
39
78
96
49
88
109
39
77
94
33
65
80
25
52
63
32
58
69
32
62
77
38
74
87
52
95
111
93
139
158
65
110
127
87
130
147
91
134
151
120
161
180
99
137
154
78
112
127
122
157
171
117
151
166
91
126
144
84
117
136
110
142
155
166
197
208
127
162
175
117
151
166
67
101
115
84
121
135
75
112
127
92
132
147
70
110
128
66
109
126
76
120
138
63
105
122
46
81
95
34
62
73
37
70
84
48
86
102
37
78
97
37
79
98
85
127
142
47
89
107
43
83
107
46
83
106
39
77
93
48
85
98
38
74
88
36
69
85
34
67
82
31
67
81
35
62
78
32
58
72
37
67
78
27
45
59
27
50
57
27
48
55
25
42
51
25
40
49
24
38
45
22
35
42
22
33
41
20
30
38
22
47
58
32
45
52
0
2
5
25
29
30
20
26
29
18
26
29
3
14
16
44
63
70
35
61
77
41
62
78
31
50
62
15
38
47
34
62
77
41
67
83
96
138
148
101
144
154
27
48
65
23
52
62
27
54
64
27
54
65
26
54
65
25
51
63
25
53
67
28
59
71
36
69
82
53
91
105
54
93
110
63
104
120
80
124
144
101
145
165
88
129
146
104
142
158
104
140
154
108
139
149
104
132
143
109
139
150
139
167
176
135
161
170
108
132
142
109
134
146
156
175
182
188
200
204
195
209
214
157
180
188
101
130
143
156
182
190
132
161
169
137
169
179
118
149
162
89
123
136
80
118
135
78
119
138
82
124
144
66
106
123
52
86
103
35
67
79
32
61
73
38
69
83
54
91
104
54
93
108
46
84
102
58
95
114
33
70
86
69
101
113
33
62
73
48
76
87
35
62
75
28
58
69
30
53
65
27
49
61
48
72
80
22
37
47
31
48
58
29
46
54
25
40
48
23
38
46
22
34
40
21
32
37
20
30
36
18
27
34
26
48
60
34
52
61
8
18
21
8
12
15
4
5
10
4
8
14
3
16
20
41
57
65
26
43
58
32
59
70
42
71
84
46
80
95
40
78
95
40
82
99
37
80
96
38
81
99
46
92
110
47
93
113
50
93
114
62
107
124
56
99
113
26
60
74
36
67
81
40
77
91
49
91
108
70
114
132
59
97
117
81
120
135
70
107
123
97
129
143
123
151
162
86
113
124
137
163
173
100
127
138
131
157
168
111
137
147
119
145
153
160
181
186
198
205
202
199
209
212
132
156
165
108
135
146
162
184
192
142
163
171
99
127
142
174
191
199
131
155
163
111
141
152
177
201
213
148
177
190
89
122
138
68
103
119
91
130
147
76
117
134
66
107
126
62
103
119
49
86
99
34
64
77
29
58
73
38
71
87
71
113
129
60
107
128
57
100
123
43
78
97
35
65
79
80
109
120
54
86
101
34
65
81
32
63
78
32
60
75
28
55
68
37
62
74
31
54
64
20
35
41
16
28
31
14
24
30
12
20
23
11
19
21
13
18
20
11
16
19
21
34
41
35
59
66
25
46
53
33
46
54
18
29
37
23
38
48
21
40
49
30
52
64
44
69
84
35
68
80
41
76
91
44
81
98
45
82
100
39
76
92
42
80
96
44
84
101
50
93
111
58
104
122
48
92
110
75
114
130
64
101
116
35
71
87
62
101
118
46
86
102
52
93
108
64
105
120
63
100
118
100
135
149
163
188
196
174
193
199
118
146
154
142
167
172
160
181
188
103
137
145
133
161
172
66
105
123
139
169
181
116
143
154
196
211
213
226
238
241
103
127
138
83
127
149
115
145
157
222
231
230
73
110
125
87
120
138
102
133
148
116
148
159
103
130
143
98
124
136
89
120
132
107
140
154
116
152
167
92
130
147
69
107
126
71
115
132
75
121
137
57
98
117
41
72
85
25
56
68
53
91
107
43
84
102
52
91
111
53
97
117
53
95
115
45
87
106
65
106
125
45
86
104
44
84
101
42
79
96
41
76
92
38
72
88
35
69
81
32
57
68
27
47
54
26
42
51
24
38
48
20
36
43
26
41
48
24
39
46
11
11
15
27
42
47
21
32
42
33
46
56
38
61
71
42
69
84
33
62
76
34
65
78
36
68
81
43
77
91
39
73
88
38
72
88
40
74
89
41
75
88
38
71
84
34
67
83
48
83
100
58
99
115
47
82
97
36
67
83
29
61
78
68
113
133
73
119
136
52
95
111
64
108
126
77
115
133
111
143
156
187
207
211
219
233
239
131
153
162
69
108
122
91
126
139
191
203
214
83
122
128
136
160
171
77
119
134
87
130
149
101
135
149
173
196
204
169
188
195
126
157
170
56
105
126
100
134
146
207
220
228
93
132
144
84
123
141
109
140
160
98
135
146
130
157
164
146
171
179
81
113
124
116
149
162
86
121
135
95
130
146
101
140
157
73
113
132
77
120
140
74
121
142
55
95
114
34
66
81
29
57
68
26
53
66
32
62
77
47
88
106
42
82
101
61
103
121
44
86
105
43
84
102
41
80
97
41
76
93
40
72
88
37
69
83
39
72
82
33
61
71
29
53
63
31
49
60
26
43
55
22
40
51
26
43
53
27
42
50
18
29
33
30
46
56
22
41
54
24
42
52
22
39
45
18
37
44
44
68
80
31
61
74
31
62
73
36
65
81
34
61
74
33
59
73
31
62
77
39
73
87
33
66
79
36
67
81
32
62
77
33
65
80
34
67
83
29
63
76
45
81
96
70
114
132
62
106
125
64
107
124
88
128
146
74
110
128
129
161
176
164
188
196
128
156
166
72
106
121
88
127
142
69
109
129
170
186
197
131
162
168
146
176
190
105
144
159
128
162
177
139
169
179
153
181
188
149
179
187
107
149
165
110
149
161
109
142
155
116
155
173
116
152
163
106
142
158
94
133
153
85
124
144
95
128
144
118
149
162
96
129
143
89
124
138
94
128
141
114
145
160
75
113
132
80
121
138
83
125
141
54
94
112
51
88
107
43
77
94
31
62
74
32
60
73
31
59
74
40
75
90
27
60
75
58
91
104
30
61
75
29
59
74
34
68
81
28
61
72
29
57
69
35
63
74
34
59
72
27
49
61
25
46
57
25
44
55
19
35
45
20
31
41
19
27
37
16
24
33
22
36
41
26
35
48
24
44
55
27
46
55
22
33
42
20
36
45
54
80
94
31
61
77
41
69
85
46
79
96
48
81
100
45
78
98
40
74
92
34
67
84
40
73
89
36
72
87
66
104
117
93
132
144
36
70
81
32
67
80
54
93
109
48
89
106
72
116
134
76
120
137
107
147
163
91
128
144
89
123
138
102
134
147
112
142
155
130
160
171
107
136
148
115
151
164
116
143
159
135
172
184
131
163
180
112
149
167
174
198
207
172
195
202
152
181
187
143
180
189
120
156
171
131
174
187
117
152
161
189
212
221
116
152
164
148
179
190
61
108
126
100
135
157
140
167
180
124
152
164
127
159
172
73
109
121
94
129
140
108
139
152
67
103
121
87
128
144
97
139
154
32
71
86
54
94
113
53
92
110
30
66
81
59
94
111
46
85
103
40
82
98
40
76
94
47
82
101
51
91
109
43
85
100
52
88
107
41
83
100
53
97
107
27
48
59
24
49
59
38
67
80
35
64
79
36
61
72
33
53
66
31
49
62
29
46
58
26
43
53
24
32
38
20
26
32
9
17
23
14
22
27
17
25
30
16
30
33
31
51
59
32
55
68
41
67
83
39
68
84
44
76
94
54
91
111
53
97
118
49
90
110
47
87
105
43
84
101
68
109
126
85
124
140
35
68
80
34
69
81
51
97
117
58
104
123
59
99
116
57
98
115
125
169
183
87
126
141
105
139
155
110
140
152
123
153
165
126
157
171
100
133
148
108
143
155
131
162
177
117
154
173
108
150
166
131
167
181
121
161
176
127
165
181
125
167
184
111
158
176
133
168
182
149
186
197
121
156
170
255
255
255
113
149
163
134
172
182
132
165
175
152
175
183
186
202
206
180
198
204
175
192
197
140
165
172
83
121
137
61
100
113
107
141
154
106
144
160
61
107
126
105
154
175
65
118
142
75
122
144
29
66
83
46
79
92
36
72
85
33
67
80
33
63
78
31
61
76
43
76
89
34
67
78
35
61
74
29
59
71
43
75
82
20
36
45
16
36
42
30
50
60
22
41
50
21
39
44
19
32
38
18
29
35
16
25
30
14
23
26
27
42
52
25
39
48
21
34
42
19
32
38
18
34
40
20
37
45
26
46
55
34
57
70
35
61
76
44
75
90
43
73
89
41
76
93
45
84
104
57
99
117
48
94
113
50
95
117
58
99
118
42
75
90
33
66
80
35
67
79
65
111
132
57
102
122
43
78
94
35
73
90
131
175
190
70
112
129
74
109
128
104
138
152
88
128
141
58
102
116
121
160
174
74
110
130
98
139
157
119
159
177
141
176
188
94
135
155
119
161
177
110
152
168
106
149
166
120
165
181
89
138
162
149
183
192
103
149
168
174
197
203
110
148
168
94
141
159
159
178
185
242
244
245
242
244
246
232
237
238
243
247
245
199
217
219
98
135
150
98
133
145
106
142
157
94
135
150
69
115
135
121
171
193
70
123
144
62
107
125
30
63
79
62
94
107
34
70
84
34
64
79
32
62
75
29
58
70
29
56
67
28
53
62
24
49
58
23
45
55
26
44
56
25
44
56
22
41
50
21
34
46
16
28
38
11
25
34
20
35
42
16
28
35
13
24
30
12
22
26
21
33
42
32
46
57
36
52
65
33
51
60
33
54
63
35
59
70
58
88
102
43
72
86
37
61
75
28
50
58
58
85
98
29
63
79
48
80
97
45
79
95
42
81
99
53
99
121
60
111
131
60
110
126
32
63
74
34
64
75
45
81
99
48
92
113
71
114
134
54
99
118
127
174
194
85
127
145
82
118
135
88
127
144
91
131
144
179
197
202
130
156
167
71
117
134
82
125
148
97
136
156
145
177
185
126
158
174
121
161
175
103
145
167
99
149
172
124
164
180
122
163
177
162
189
201
124
168
182
129
166
181
126
161
179
109
152
168
135
161
167
223
232
235
112
139
149
89
122
135
190
209
216
152
174
181
112
149
159
119
156
172
61
101
120
132
183
199
52
99
118
71
119
140
62
108
130
41
80
100
30
66
82
65
107
126
63
114
136
51
99
118
49
95
114
49
92
110
49
88
107
46
86
103
44
83
99
44
78
95
43
74
91
41
71
87
38
68
82
37
63
77
33
58
70
31
54
64
33
55
67
30
51
64
28
48
59
26
43
54
12
19
26
28
42
52
27
45
57
27
43
53
30
46
55
31
51
60
37
60
75
45
70
84
33
59
69
32
56
66
42
70
85
41
75
92
32
65
81
42
77
92
44
84
101
48
89
108
39
77
94
46
81
94
60
94
107
33
65
78
32
67
82
43
84
103
62
108
129
62
112
134
103
154
177
92
137
158
94
134
152
87
125
143
107
142
154
117
146
162
121
153
163
110
143
153
76
118
137
81
116
131
195
209
215
136
163
173
120
155
168
124
157
175
97
141
157
120
159
174
155
178
199
136
168
177
238
247
249
237
240
246
140
170
177
117
150
165
125
165
175
111
140
154
99
130
144
86
125
138
111
141
154
123
158
171
88
134
147
90
130
147
95
140
162
111
168
184
52
99
118
56
101
120
43
84
100
42
78
94
44
80
96
46
85
102
39
83
102
74
122
136
51
95
112
43
84
102
43
81
100
40
79
96
39
76
91
38
71
87
38
68
82
36
65
78
33
61
74
30
56
69
48
76
89
35
61
74
32
56
69
29
52
66
27
49
61
26
46
57
8
15
20
13
17
25
15
22
29
15
26
32
16
30
36
17
32
38
20
37
45
22
42
52
22
44
53
25
48
56
32
48
63
39
71
88
44
83
101
53
87
106
40
74
90
42
75
90
48
88
104
83
131
148
50
85
102
32
64
77
31
61
73
30
63
76
41
82
98
50
92
112
63
107
130
77
128
149
57
97
117
119
166
186
93
135
150
104
143
158
107
146
160
122
155
170
159
185
194
150
176
187
84
114
130
147
173
184
101
135
151
128
158
172
89
131
150
100
141
157
159
183
195
135
164
172
126
156
165
130
156
166
142
168
178
148
176
186
100
138
151
158
191
199
62
101
116
53
95
114
47
87
106
132
174
193
62
105
124
79
121
140
61
101
120
56
103
125
56
102
125
43
81
99
33
67
81
32
66
80
36
70
82
57
91
102
34
68
79
34
67
81
67
103
115
38
73
88
37
69
87
34
67
83
32
65
78
30
61
74
30
57
69
28
54
66
27
50
60
23
47
57
25
47
56
21
41
50
20
38
46
20
34
42
18
31
38
17
28
34
23
32
40
34
45
52
11
19
23
5
8
13
9
15
21
32
44
52
5
16
22
9
21
27
11
21
27
13
27
32
60
86
90
15
36
44
32
52
64
38
73
87
53
96
114
46
86
107
38
79
99
50
90
107
75
117
135
33
77
96
63
106
124
100
140
151
36
70
82
41
71
87
42
82
103
72
126
147
48
94
115
61
106
122
75
121
141
82
129
151
114
159
179
46
90
110
123
160
174
123
158
171
64
107
126
145
177
186
98
138
149
155
189
198
60
101
123
157
185
199
180
197
203
162
191
199
44
87
105
64
101
118
188
212
220
165
195
206
100
139
157
165
202
215
73
116
133
72
122
140
91
140
158
61
106
124
51
94
113
48
89
110
53
96
117
44
85
105
37
73
90
34
66
78
35
70
83
64
102
117
41
80
94
51
88
105
38
76
94
65
108
123
46
84
101
44
78
95
39
75
91
38
72
87
36
68
85
35
64
80
35
61
76
33
57
71
30
55
67
29
52
63
27
47
58
24
44
53
22
40
50
21
36
45
20
33
42
18
31
38
4
6
12
20
23
28
15
22
28
22
35
45
35
47
57
27
44
57
49
75
91
28
49
59
50
73
87
11
23
30
14
30
37
30
49
58
31
53
64
22
44
54
22
42
51
22
46
58
36
63
76
32
61
76
38
66
83
40
71
87
38
71
84
69
103
114
31
62
74
33
62
76
34
66
79
39
76
92
44
82
103
48
90
107
60
106
125
60
107
130
66
109
131
65
115
138
133
188
209
125
178
197
85
134
152
61
108
124
128
170
187
88
130
147
83
125
143
71
112
130
63
107
124
146
191
209
155
201
219
114
161
179
156
202
221
120
169
184
59
104
122
96
140
160
53
102
123
79
127
147
56
103
122
47
95
112
57
100
117
39
76
95
35
72
89
61
99
116
45
86
104
46
89
106
42
84
103
65
108
126
45
89
109
48
89
110
45
80
103
43
81
99
40
76
95
39
73
90
37
70
86
37
67
81
36
64
77
35
61
74
34
58
70
29
52
63
19
39
44
18
35
42
19
32
40
19
28
37
17
25
34
15
22
30
15
21
27
14
20
25
24
36
45
24
35
42
27
37
44
26
42
51
30
51
59
39
66
79
54
82
100
20
36
46
26
49
58
19
36
44
36
59
68
29
56
67
30
63
75
40
75
89
40
79
94
41
83
97
43
85
99
44
88
102
46
90
107
46
92
109
49
96
115
51
98
119
50
101
121
51
103
124
54
105
129
56
106
129
49
99
119
44
84
102
39
75
92
44
84
101
55
100
119
59
107
127
67
113
134
63
111
132
66
113
135
73
119
140
75
120
142
76
122
143
69
115
136
66
111
133
80
133
154
104
159
180
108
160
182
90
139
163
88
136
159
77
130
148
60
109
131
55
102
125
79
130
153
55
106
127
44
89
110
37
74
92
37
69
84
34
67
79
32
65
73
31
64
73
34
66
78
43
75
90
28
58
71
28
54
68
26
50
65
58
86
99
42
73
84
29
59
71
27
55
67
25
52
63
24
49
59
23
45
57
23
42
55
22
40
52
19
36
46
25
41
51
35
55
63
29
45
53
20
31
37
12
20
25
10
17
20
29
37
39
1
4
6
2
2
2
15
22
26
14
25
33
20
35
44
33
48
56
17
31
37
22
32
36
5
12
15
26
34
38
16
25
32
30
46
54
20
32
41
21
36
44
40
64
75
27
60
75
42
77
94
42
77
94
42
81
97
44
83
99
51
90
111
87
127
145
37
76
94
39
76
93
40
79
96
41
82
99
43
88
107
56
105
125
61
108
131
55
104
131
57
102
123
44
86
100
32
69
83
37
73
87
43
81
97
43
85
105
49
91
110
49
90
107
49
90
109
58
104
124
64
116
136
76
128
152
53
98
118
42
86
108
68
117
139
58
106
127
49
95
113
48
91
111
41
82
100
37
76
93
50
86
104
42
80
94
31
66
78
35
63
77
35
62
74
31
61
72
28
57
72
26
56
67
44
78
88
132
172
180
41
76
92
48
80
97
37
73
89
39
73
89
39
68
87
33
64
79
38
66
81
34
62
76
33
58
71
32
53
65
31
50
62
29
47
58
33
49
58
19
35
43
23
37
43
24
37
43
21
35
40
19
32
37
19
28
34
17
25
31
17
25
30
14
22
27
11
15
18
19
28
34
27
38
45
24
35
40
18
25
32
20
27
33
23
30
36
26
42
49
38
59
70
19
34
41
39
52
59
18
33
40
36
62
73
40
66
78
23
44
57
25
48
61
26
51
63
28
54
65
31
67
79
44
77
91
37
71
87
40
73
91
41
75
91
41
76
92
46
81
99
50
89
108
48
90
111
52
98
115
55
101
123
54
102
124
57
105
124
47
88
105
35
69
84
36
66
78
34
63
75
35
68
83
40
79
91
45
79
93
36
65
79
35
66
79
34
68
79
30
67
80
43
80
97
35
70
87
36
67
81
40
74
92
48
80
93
49
86
97
118
167
182
138
181
194
22
54
67
31
56
71
32
55
69
28
55
65
28
52
65
27
50
60
43
71
80
35
71
83
54
92
112
61
104
123
43
85
101
41
80
94
41
75
89
45
81
95
50
88
104
44
76
92
26
46
55
12
24
29
9
20
26
6
17
24
17
29
37
15
26
34
13
22
28
26
35
43
20
29
36
18
26
33
17
25
31
17
23
29
16
22
28
14
21
27
14
24
30
25
33
37
2
7
10
11
13
16
10
12
17
14
17
23
20
26
32
15
20
25
9
12
13
6
10
13
9
20
24
16
31
37
25
41
52
20
41
53
47
75
87
34
62
75
33
64
78
34
66
82
35
65
81
31
61
76
34
64
77
39
69
80
37
65
73
20
47
60
22
43
55
16
44
55
67
119
143
14
44
56
41
68
89
58
113
130
55
93
116
54
101
127
28
64
75
52
100
120
31
58
67
89
134
148
70
123
143
56
95
111
31
60
71
32
59
70
30
59
72
32
59
71
41
78
94
99
147
166
84
126
139
53
100
118
88
134
156
31
64
79
52
106
136
58
114
137
43
82
97
30
47
59
27
50
65
26
49
59
35
61
75
32
62
76
33
66
81
86
120
134
77
115
129
29
60
72
27
51
61
27
49
57
22
47
57
22
42
51
34
59
66
42
68
76
61
84
96
32
55
65
57
81
88
31
47
54
30
41
47
14
23
28
11
17
21
8
14
19
8
14
18
7
13
17
8
13
16
8
11
15
7
10
13
6
10
12
16
24
30
26
34
37
21
28
32
9
13
17
9
14
17
27
34
35
11
18
19
11
19
21
28
40
46
21
32
39
20
35
42
20
38
45
24
41
51
24
40
50
22
42
51
25
45
56
25
48
59
28
51
62
30
52
64
32
55
68
33
61
75
40
68
81
42
71
82
49
83
97
38
71
83
17
47
59
63
109
133
29
58
67
45
70
87
58
112
126
46
78
100
55
95
116
13
42
49
66
109
127
24
51
60
50
95
114
46
94
118
85
127
145
21
52
65
27
51
65
30
55
70
32
57
71
49
86
105
58
106
131
53
98
118
43
85
104
57
96
117
24
53
64
45
95
118
49
99
116
41
72
87
29
53
66
37
67
85
47
80
96
31
58
70
24
52
66
58
91
105
27
60
75
39
72
87
39
67
82
36
66
78
36
62
76
35
59
77
35
59
72
32
53
67
30
50
62
30
49
59
27
43
53
33
47
56
16
25
32
9
17
22
11
16
19
11
14
17
10
13
17
10
13
16
9
13
15
9
12
17
12
17
21
8
10
12
1
1
2
7
6
12
13
18
17
38
45
53
8
13
18
8
13
10
15
23
27
9
16
21
14
17
19
24
35
47
19
38
42
16
34
40
22
40
48
32
53
62
21
38
46
19
33
40
19
36
44
21
37
46
22
40
49
23
42
54
25
43
54
47
78
96
35
65
81
23
38
44
23
47
59
41
77
96
47
77
92
55
102
120
19
44
55
32
52
63
54
102
120
42
72
95
48
92
103
11
34
45
62
98
124
17
45
50
51
86
107
46
90
111
45
87
107
19
46
56
31
57
71
44
80
100
59
101
121
56
100
121
59
103
121
46
87
102
36
71
87
24
47
57
25
47
58
49
86
106
44
93
110
32
59
82
60
108
120
31
47
61
12
30
36
31
55
66
38
65
80
30
62
78
35
65
80
42
71
85
32
59
72
32
57
69
32
54
67
30
52
63
37
64
73
29
48
59
30
47
57
26
44
52
28
43
52
30
42
52
21
31
39
13
21
29
13
21
26
12
20
24
12
19
22
10
17
20
10
16
17
9
13
16
8
11
15
8
11
12
8
10
10
