P1
# CREATOR: GIMP PNM Filter Version 1.1
80 24
0000000000000000000000000000000000000000000000000000000000000000000000
0000000000000000000000100000000000000000000000010000000000000000000000
0000000000000000000000000000000000000000000000000000000000000001000000
0000000000000000000000000000000000000000000000000000000000000000000000
0000000000000000000000000000000000000000000000000000000000000000000000
0000000000000100000000000000000000000000000000000000000000000000000000
0000000000000000000000000000000000000000000000000000000000000000000000
0000000000000000000000000000000000000000000000000000000000000000000000
0000000000000000000000000000000000000000000000000000000000000000000000
0000000000000000001001010010000000000000000000000000000000000000000010
0000000000000000000000100100000000100000000000000000000000101010000000
0001000010010101000000000000000000000000000000010000000000000000000000
0000000001000010000100000001001000000000000000000000000000100100010000
0000000000000000000000000000000000000000001000000001000010100010100001
0010100101001000010000000101010100010000000000000000001001001111111111
1111111111111111111111111111111111011010100101000100011000000000000000
1111111111111111111111111111111111111111111111111111111111111110101010
0000000000111111111111111111111111111111111111111111111111111111111111
1111111111111111111111111111111111111111111111111111111111111111111111
1111111111111111111111111111111111111111111111111111111111111111111111
1111111111111111111111111111111111111111111111111111111111111111111111
1111111111111111111111111111111111111111111111111101010110010110110111
1111111111111111111111111111111111111111111111111111111111111111111111
1111111111111111111111111111111111111111111111111111111111111111111111
1111111111111111111111111111111111111111111111111111111111111111111111
1111111111111111111111111111111111111111111111111111111111111111111111
1111111111111111111111111111111111111111111111111111111111111111111111
111111111111111111111111111111